<?xml version="1.0" encoding="UTF-8"?>
<svg width="31px" height="31px" viewBox="0 0 31 31" version="1.1" xmlns="http://www.w3.org/2000/svg" xmlns:xlink="http://www.w3.org/1999/xlink">
    <title>icon-bacteria-b</title>
    <g id="icon-bacteria-b" stroke="none" fill="none" transform="translate(0.5, 0.5)" fill-rule="evenodd" stroke-linecap="round" stroke-linejoin="round" stroke-width="1">
        <g id="Group" transform="translate(5.5, 7)" stroke="#131415">
            <path d="M13.350233,9.45211691 C14.2104973,10.0761684 14.3988754,11.2751828 13.7709872,12.1301906 C13.143099,12.9851983 11.9367131,13.1724253 11.0764487,12.5483738 C10.2127439,11.9218265 8.87907533,10.9143383 8.0153705,10.287791 C7.15166567,9.66124367 7.15166567,9.66124367 6.28796084,9.03469637 C5.42769649,8.41064487 5.2393184,7.21163046 5.86720658,6.35662272 C6.49509477,5.50161499 7.70148076,5.31438797 8.5617451,5.93843947 C9.42544993,6.56498677 9.42544993,6.56498677 10.2891548,7.19153406 C11.1528596,7.81808135 12.4865281,8.82556962 13.350233,9.45211691 Z" id="Path-2-Copy-4" stroke-width="1.5"></path>
            <path d="M13.0659836,3.88231343 C13.9262479,4.50636493 14.114626,5.70537935 13.4867379,6.56038708 C12.8588497,7.41539481 11.6524637,7.60262183 10.7921993,6.97857033 C9.92849452,6.35202304 8.59482596,5.34453477 7.73112113,4.71798748 C6.8674163,4.09144019 6.8674163,4.09144019 6.00371147,3.4648929 C5.14344712,2.84084139 4.95506903,1.64182698 5.58295721,0.786819248 C6.2108454,-0.0681884852 7.41723139,-0.255415504 8.27749573,0.368635997 C9.14120056,0.99518329 9.14120056,0.99518329 10.0049054,1.62173058 C10.8686102,2.24827788 12.2022788,3.25576614 13.0659836,3.88231343 Z" id="Path-2-Copy-5" stroke-width="1.5"></path>
            <path d="M13.5036958,6.77728964 C15.231123,8.73234312 16.1494369,7.54357531 18.3618062,9.33615344" id="Path-2" stroke-width="1.5"></path>
            <path d="M14.1418896,12.23365 C15.8693168,14.1887035 16.7876307,12.9999357 19,14.7925138" id="Path-2-Copy" stroke-width="1.5"></path>
            <path d="M7.85392877,10.6596031 C8.71419312,11.2836546 8.90257121,12.482669 8.27468303,13.3376767 C7.64679484,14.1926845 6.44040885,14.3799115 5.58014451,13.75586 C4.71643968,13.1293127 3.38277112,12.1218244 2.51906629,11.4952771 C1.65536146,10.8687298 1.65536146,10.8687298 0.791656633,10.2421825 C-0.0686077098,9.61813104 -0.256985805,8.41911662 0.370902381,7.56410889 C0.998790567,6.70910116 2.20517655,6.52187414 3.06544089,7.14592564 C3.92914572,7.77247293 3.92914572,7.77247293 4.79285055,8.39902023 C5.65655538,9.02556752 6.99022394,10.0330558 7.85392877,10.6596031 Z" id="Path-2-Copy-6" stroke-width="1.5"></path>
            <path d="M8.64558541,13.4411362 C10.3730126,15.3961897 11.2913265,14.2074219 13.5036958,16" id="Path-2-Copy-2" stroke-width="1.5"></path>
        </g>
    </g>
</svg>