<?xml version="1.0" encoding="UTF-8"?>
<svg width="31px" height="31px" viewBox="0 0 31 31" version="1.1" xmlns="http://www.w3.org/2000/svg" xmlns:xlink="http://www.w3.org/1999/xlink">
    <title>icon-bug-w</title>
    <g id="icon-bug-w" stroke="none" fill="none" transform="translate(0.5, 0.5)" stroke-linecap="round" stroke-linejoin="round" stroke-width="1.5">
        <ellipse id="Oval" stroke="#FFFFFF" cx="14.9891304" cy="15.7835873" rx="3.21100281" ry="5.65776205"></ellipse>
        <path d="M18.2001332,13.6732525 C18.6743042,13.6732525 19.0685936,13.4473675 19.3830017,12.9955976" id="Path-3" stroke="#FFFFFF"></path>
        <path d="M18.2001332,20.4776118 C18.6111884,20.4776118 18.952995,19.9529492 19.225553,18.903624" id="Path-3-Copy" stroke="#FFFFFF" transform="translate(18.7128, 19.6906) scale(1, -1) translate(-18.7128, -19.6906)"></path>
        <path d="M18.2001332,16.8690043 C18.726238,16.8690043 19.1637123,16.6431193 19.5125562,16.1913494" id="Path-3-Copy-2" stroke="#FFFFFF" transform="translate(18.8563, 16.5302) scale(1, -1) translate(-18.8563, -16.5302)"></path>
        <path d="M10.6170983,13.6732525 C11.0912692,13.6732525 11.4855587,13.4473675 11.7999668,12.9955976" id="Path-3" stroke="#FFFFFF" transform="translate(11.2085, 13.3344) scale(-1, 1) translate(-11.2085, -13.3344)"></path>
        <path d="M10.774547,20.4776118 C11.1856022,20.4776118 11.5274088,19.9529492 11.7999668,18.903624" id="Path-3-Copy" stroke="#FFFFFF" transform="translate(11.2873, 19.6906) scale(-1, -1) translate(-11.2873, -19.6906)"></path>
        <path d="M10.4875438,16.8690043 C11.0136486,16.8690043 11.4511229,16.6431193 11.7999668,16.1913494" id="Path-3-Copy-2" stroke="#FFFFFF" transform="translate(11.1438, 16.5302) scale(-1, -1) translate(-11.1438, -16.5302)"></path>
        <line x1="12.6026929" y1="14.9972359" x2="17.4849997" y2="14.9972359" id="Line" stroke="#FFFFFF"></line>
        <path d="M11.8935122,8.74905852 C13.3779808,8.74905852 14.6123677,8.52317353 15.5966729,8.07140354" id="Path-3" stroke="#FFFFFF" transform="translate(13.7451, 8.4102) rotate(-90) translate(-13.7451, -8.4102)"></path>
        <path d="M14.3815879,8.74905852 C15.8660565,8.74905852 17.1004435,8.52317353 18.0847487,8.07140354" id="Path-3-Copy-3" stroke="#FFFFFF" transform="translate(16.2332, 8.4102) scale(-1, 1) rotate(-90) translate(-16.2332, -8.4102)"></path>
    </g>
</svg>