<?xml version="1.0" encoding="UTF-8"?>
<svg width="30px" height="30px" viewBox="0 0 30 30" version="1.1" xmlns="http://www.w3.org/2000/svg" xmlns:xlink="http://www.w3.org/1999/xlink">
    <title>icon-ifab-cog-w</title>
    <g id="icon-ifab-cog-w" stroke="none" fill="none" fill-rule="nonzero">
        <path d="M16.5392643,8.96165377 L16.6269901,8.96194651 L16.7157426,8.97827261 C17.0575293,9.07334891 17.3895674,9.19784111 17.7086249,9.35009006 C17.9581175,9.46914378 18.0636546,9.76806147 17.9442179,10.0173709 L17.6142189,10.707434 C18.3539563,11.1582312 18.9645082,11.80005 19.377347,12.5643629 L20.0869329,12.2702937 C20.3418874,12.1643764 20.6344367,12.2851425 20.7404351,12.5400633 C20.8757998,12.8656085 20.9829517,13.2028147 21.0604168,13.5485312 C21.1207802,13.8179245 20.9513843,14.0852605 20.6820123,14.145719 L19.9288903,14.3148672 C19.9505067,14.5014085 19.9616184,14.6911519 19.9616184,14.8834907 C19.9616184,15.5597767 19.8242436,16.2039771 19.5758768,16.7897091 L20.2591038,17.164661 C20.5013271,17.2972754 20.5901773,17.601145 20.4575536,17.8433632 C20.2879406,18.1531371 20.0918699,18.4476911 19.8717628,18.7237733 C19.6996562,18.939648 19.385155,18.9751742 19.1692291,18.8031318 L18.5550993,18.3140336 C17.965721,18.9119128 17.2234348,19.3586569 16.3916454,19.5908611 L16.5269638,20.3720682 C16.5740216,20.6441759 16.3915789,20.9029096 16.1194701,20.9499611 C15.7737525,21.0097407 15.4217113,21.0400177 15.0660546,21.0400177 L15.0207578,21.0398539 C14.7447913,21.0378576 14.5226269,20.8126502 14.5243744,20.536682 L14.52945,19.7415239 C13.6792525,19.6457365 12.8955084,19.3335543 12.2345513,18.8607083 L11.7069608,19.4592569 C11.5241509,19.6661643 11.2082359,19.6857344 11.001287,19.5029715 C10.7367762,19.269374 10.4926652,19.0134373 10.2718585,18.7381688 C10.0991044,18.5228052 10.1336024,18.2081821 10.3489193,18.0353698 L10.9690601,17.5376481 C10.5298082,16.8569762 10.2536224,16.0603625 10.1982233,15.2036011 L9.40803667,15.1721051 C9.13206198,15.1613625 8.91706643,14.9289019 8.92786739,14.6529295 C8.94178036,14.2974425 8.98606451,13.9464043 9.05982791,13.6026287 C9.10490239,13.3925583 9.27582878,13.2418754 9.47663641,13.2126085 L9.56424649,13.2076801 L9.6538367,13.2187039 L10.4223517,13.383721 C10.6945897,12.5385698 11.1907263,11.7939099 11.8408868,11.2196157 L11.389991,10.5868501 C11.2297387,10.3618851 11.2822526,10.0495976 11.5072702,9.88941923 C11.794939,9.68464275 12.0997891,9.50490529 12.4185413,9.35245148 C12.6675486,9.23335544 12.9659594,9.3385679 13.0852081,9.58750215 L13.4186782,10.2843867 C13.9358281,10.0981375 14.4934417,9.99663473 15.0747624,9.99663473 C15.3540346,9.99663473 15.6278352,10.0200609 15.8943065,10.0650554 L16.1000212,9.32602765 C16.1575658,9.11908805 16.3371212,8.97891232 16.5392643,8.96165377 Z M15.0747624,12.7889088 C13.9179568,12.7889088 12.9801805,13.7266851 12.9801805,14.8834907 C12.9801805,16.0402963 13.9179568,16.9780726 15.0747624,16.9780726 C16.231568,16.9780726 17.1693443,16.0402963 17.1693443,14.8834907 C17.1693443,13.7266851 16.231568,12.7889088 15.0747624,12.7889088 Z" id="Combined-Shape" fill="#FFFFFF"></path>
    </g>
</svg>