<?xml version="1.0" encoding="UTF-8"?>
<svg width="31px" height="31px" viewBox="0 0 31 31" version="1.1" xmlns="http://www.w3.org/2000/svg" xmlns:xlink="http://www.w3.org/1999/xlink">
    <title>icon-barn-b</title>
    <g id="icon-barn-b" stroke="none" fill="none" transform="translate(0.5, 0.5)" fill-rule="evenodd" stroke-linecap="round" stroke-width="1">
        <g id="Group" transform="translate(4.6346, 6.1612)" stroke="#000000">
            <rect id="Rectangle-4" stroke-width="1.5" stroke-linejoin="round" x="9.93284033" y="3.74160301" width="1" height="1"></rect>
            <path d="M4.79189161,17.677601 C4.79189161,15.4917772 3.01993125,13.7198168 0.834107378,13.7198168" id="Oval-3" stroke-width="1.5"></path>
            <path d="M7.89903238,17.677601 C7.89903238,13.7757507 4.73595771,10.612676 0.834107378,10.612676" id="Oval-3-Copy" stroke-width="1.5"></path>
            <path d="M19.8967674,17.677601 C13.8633269,17.677601 10.8421276,17.677601 10.8331695,17.677601 C10.8331695,12.1626926 6.34901578,7.69197605 0.834107378,7.69197605" id="Oval-3-Copy-2" stroke-width="1.5"></path>
            <line x1="19.8967674" y1="14.3489594" x2="10.3654374" y2="14.3489594" id="Path" stroke-width="1.5"></line>
            <line x1="19.8967674" y1="11.0204177" x2="8.6827187" y2="11.0204177" id="Path-Copy" stroke-width="1.5"></line>
            <line x1="19.8967674" y1="7.69187605" x2="0.834107378" y2="7.69187605" id="Path-Copy-2" stroke-width="1.5"></line>
            <line x1="7.44019384" y1="4.36333438" x2="2.44220754" y2="4.36333438" id="Path-Copy-3" stroke-width="1.5"></line>
            <path d="M17.3445569,5.92430855 C18.1520824,5.92430855 18.8067112,5.26967978 18.8067112,4.46215427 C18.8067112,3.63514811 18.3193264,2.14776335 17.3445569,0 C16.3697874,2.14161477 15.8824026,3.62899952 15.8824026,4.46215427 C15.8824026,5.26967978 16.5370314,5.92430855 17.3445569,5.92430855 Z" id="Oval-4" stroke-width="1.5" stroke-linejoin="round"></path>
            <line x1="17.3445569" y1="5.92430855" x2="17.3445569" y2="7.69197605" id="Path" stroke-width="1.5"></line>
            <path d="M4.5331693,1.21651308 L10.3472184,1.21651308 C11.8383871,1.21651308 13.0472182,2.42534417 13.0472182,3.91651289 L13.0472182,7.69197605 L13.0472182,7.69197605 L1.83316949,7.69197605 L1.83316949,3.91651289 C1.83316949,2.42534417 3.04200058,1.21651308 4.5331693,1.21651308 Z" id="Rectangle-3" stroke-width="1.5"></path>
            <path d="M10.1401937,1.21651308 L10.3472184,1.21651308 C11.8383871,1.21651308 13.0472182,2.42534417 13.0472182,3.91651289 L13.0472182,7.69197605 L13.0472182,7.69197605 L7.44019384,7.69197605 L7.44019384,3.91651289 C7.44019384,2.42534417 8.64902493,1.21651308 10.1401937,1.21651308 Z" id="Rectangle-3-Copy" stroke-width="1.5"></path>
        </g>
    </g>
</svg>