<?xml version="1.0" encoding="UTF-8"?>
<svg width="30px" height="30px" viewBox="0 0 30 30" version="1.1" xmlns="http://www.w3.org/2000/svg" xmlns:xlink="http://www.w3.org/1999/xlink">
    <title>pic-w</title>
    <g id="pic-w" stroke="none" fill="none" stroke-linecap="round" stroke-linejoin="round" stroke-width="1.5">
        <path d="M17.1858438,7.32008624 C18.1520788,7.32008624 18.958279,8.00527669 19.1450583,8.91627161 L23.3135671,8.91627984 C24.4181366,8.91627984 25.3135671,9.81171034 25.3135671,10.9162798 L25.3135671,20.6799138 C25.3135671,21.7844833 24.4181366,22.6799138 23.3135671,22.6799138 L6.68643293,22.6799138 C5.58186343,22.6799138 4.68643293,21.7844833 4.68643293,20.6799138 L4.68643293,10.9162798 C4.68643293,9.81171034 5.58186343,8.91627984 6.68643293,8.91627984 L10.7483191,8.91627161 C10.9350985,8.00527669 11.7412986,7.32008624 12.7075336,7.32008624 L17.1858438,7.32008624 Z" id="Combined-Shape" stroke="#FFFFFF"></path>
        <ellipse id="Oval-3" stroke="#FFFFFF" cx="8.44703793" cy="12.4758766" rx="1" ry="1"></ellipse>
        <ellipse id="Oval-2" stroke="#FFFFFF" cx="15" cy="15.7980968" rx="3.62827723" ry="3.57530464"></ellipse>
    </g>
</svg>