<?xml version="1.0" encoding="UTF-8"?>
<svg width="31px" height="31px" viewBox="0 0 31 31" version="1.1" xmlns="http://www.w3.org/2000/svg" xmlns:xlink="http://www.w3.org/1999/xlink">
    <title>icon-spots-b</title>
    <g id="icon-spots-b" stroke="none" fill="none" transform="translate(0.5, 0.5)" fill-rule="evenodd" stroke-linecap="round" stroke-linejoin="round" stroke-width="1">
        <g id="Group" transform="translate(8.9598, 8.8157)" stroke="#131415">
            <path d="M2.00111653,4.96933619 C1.62722205,3.31240925 -0.279981442,1.62731063 2.00111653,0.252585334 C3.85088851,-0.862197264 3.71459511,2.07423953 5.18765373,2.07423953 C6.29991471,2.07423953 7.9934973,1.20460375 8.64270239,2.88622111 C9.76039394,5.78134553 6.17009557,5.21839269 5.77958574,5.58118029 C5.49984158,5.84106546 6.98284807,7.81048614 4.4287161,8.17558434 C3.19622992,8.35176101 2.00321041,10.1747361 1.27831662,9.16736714 C-2.12001277,4.44478345 2.37501101,6.62626312 2.00111653,4.96933619 Z" id="Path-4" stroke-width="1.5"></path>
            <path d="M8.23678819,10.834802 C8.23600219,10.1255735 7.80486967,9.27145997 8.23443018,8.70711661 C9.60895289,6.90131099 11.2759765,8.37159437 11.9137775,10.044319 C12.5014459,11.5855639 11.4481391,12.0445873 10.1116755,12.3495701 C9.38027198,12.5164774 8.2375742,11.5440305 8.23678819,10.834802 Z" id="Path-7" stroke-width="1.5"></path>
        </g>
    </g>
</svg>