<?xml version="1.0" encoding="UTF-8"?>
<svg width="31px" height="31px" viewBox="0 0 31 31" version="1.1" xmlns="http://www.w3.org/2000/svg" xmlns:xlink="http://www.w3.org/1999/xlink">
    <title>icon-wheat-w</title>
    <g id="icon-wheat-w" stroke="none" fill="none" transform="translate(0.5, 0.5)" fill-rule="evenodd" stroke-linecap="round" stroke-linejoin="round" stroke-width="1">
        <g id="Group-2" transform="translate(8.652, 8.6709)" stroke="#FFFFFF">
            <line x1="0.631735903" y1="12.0264267" x2="3" y2="9.65816259" id="Line-2-Copy-6" stroke-width="1.5"></line>
            <line x1="10.6960476" y1="2" x2="11.8833562" y2="0.812691401" id="Line-2-Copy-7" stroke-width="1.5"></line>
            <g id="Group" transform="translate(1.3312, 1.2993)" stroke-width="1.5">
                <line x1="2.66378742" y1="6.99092782" x2="2.66378742" y2="4.70385565" id="Line-2-Copy-2"></line>
                <line x1="1" y1="6.97948609" x2="1" y2="6.17490104" id="Line-2-Copy-9"></line>
                <line x1="4.32757484" y1="5.42297594" x2="4.32757484" y2="3.13590376" id="Line-2-Copy-3"></line>
                <line x1="5.99136226" y1="3.85502406" x2="5.99136226" y2="1.56795188" id="Line-2-Copy-4"></line>
                <line x1="7.65514968" y1="2.28707217" x2="7.65514968" y2="0" id="Line-2-Copy-5"></line>
            </g>
            <g id="Group-Copy" transform="translate(8.4091, 6.8597) scale(-1, 1) rotate(90) translate(-8.4091, -6.8597)translate(4.2436, 2.5862)" stroke-width="1.5">
                <line x1="0.963765033" y1="7.70500156" x2="0.963765033" y2="6.54702542" id="Line-2-Copy-2"></line>
                <line x1="2.55419352" y1="6.35963679" x2="2.55419352" y2="4.78102382" id="Line-2-Copy-3"></line>
                <line x1="4.15769366" y1="4.75843136" x2="4.15769366" y2="3.17981839" id="Line-2-Copy-4"></line>
                <line x1="5.76119379" y1="3.15722593" x2="5.76119379" y2="1.57861296" id="Line-2-Copy-5"></line>
                <line x1="7.29483952" y1="1.57861296" x2="7.29483952" y2="0.570097488" id="Line-2-Copy-8"></line>
            </g>
        </g>
    </g>
</svg>