<?xml version="1.0" encoding="UTF-8"?>
<svg width="320px" height="1px" viewBox="0 0 320 1" version="1.1" xmlns="http://www.w3.org/2000/svg" xmlns:xlink="http://www.w3.org/1999/xlink">
    <title>line-colors</title>
    <defs>
        <rect id="path-1" x="0" y="0" width="320" height="1"></rect>
    </defs>
    <g id="line-colors" stroke="none" stroke-width="1" fill="none" fill-rule="evenodd">
        <g id="Rectangle-2-Copy-3">
            <mask id="mask-2" fill="white">
                <use xlink:href="#path-1"></use>
            </mask>
            <use id="Rectangle" fill="#000000" xlink:href="#path-1"></use>
            <g id="Group" mask="url(#mask-2)">
                <g transform="translate(-39.9886, -154.112)" id="Combined-Shape">
                    <path d="M378.260806,108.744649 L378.246303,108.742457 C260.022409,140.183785 241.576283,190.293952 257.977067,245.124288 C241.640871,247.597184 224.417642,249.050999 206.605255,249.340019 L206.613409,249.333992 C203.811891,232.263337 196.89039,217.232102 187.62837,203.540927 L187.695465,203.902215 C172.064242,129.541636 274.371075,117.057362 322.15529,65.3289042 C346.623519,80.920132 365.327547,95.3941258 378.260806,108.744649 Z" fill="#EAFF00"></path>
                    <path d="M17.6713438,113.115174 C47.9862732,149.109023 119.904598,176.253411 140.336733,214.695687 C139.835672,214.129786 139.333619,213.560204 138.824611,212.988579 C112.110223,182.98783 55.46081,189.221026 4.18079938,169.822816 C1.43901052,163.228094 0,156.394837 0,149.39353 C0,138.664479 5.66093067,126.833341 16.982792,113.900116 L17.6713438,113.115174 Z" fill="#EAFF00"></path>
                    <path d="M78.1270463,65.1494207 C82.595468,131.742727 193.030558,166.567281 206.613458,249.334288 L206.605255,249.340019 C204.412248,249.375603 202.210311,249.39353 200,249.39353 C180.797036,249.39353 162.226171,248.04036 144.648012,245.514324 L144.238984,247.170502 C159.926866,189.713437 55.8322115,158.426108 17.6705002,113.114172 C30.4693008,98.7413324 50.2034767,83.0179443 76.88,65.9429999 L78.1270463,65.1494207 Z" fill="#6AA560"></path>
                    <path d="M378.261807,108.745684 C392.753936,123.705651 400,137.254933 400,149.39353 C400,151.949134 399.808269,154.482347 399.431606,156.98977 C355.238591,185.084832 256.353336,188.945008 252.928682,217.241111 C250.932126,174.052946 279.756002,135.634185 374.968782,109.625844 L378.261807,108.745684 Z" fill="#3D5D38"></path>
                    <path d="M203.646627,1.72295065 C252.123939,24.6702147 291.625073,45.8705019 322.149827,65.3234779 C274.371632,117.057294 172.064199,129.541433 187.695465,203.902215 L187.627016,203.538925 C174.440292,184.046896 156.509649,167.271019 138.970205,151.193108 C138.838254,150.721683 138.704759,150.245341 138.569833,149.765319 C119.849666,83.1648646 236.734923,94.9712591 203.646627,1.72295065 Z" fill="#3D5D38"></path>
                </g>
            </g>
        </g>
    </g>
</svg>