<?xml version="1.0" encoding="UTF-8"?>
<svg width="144px" height="33px" viewBox="0 0 144 33" version="1.1" xmlns="http://www.w3.org/2000/svg" xmlns:xlink="http://www.w3.org/1999/xlink">
    <title>logo-full-white-color</title>
    <defs>
        <path d="M10.0189648,1.96786445e-16 C10.8451961,2.3535075 12.5415576,4.46101705 14.2505275,6.12706498 C16.638096,8.45466803 19,11.6435543 19,15.1596777 C19,20.1203445 15.1978233,24.1929654 10.348729,24.6222813 C10.1797382,25.1685696 10.0082729,25.7322858 9.82379356,26.3090888 L9.17653983,26.3090888 C8.99199695,25.7322859 8.8204746,25.1685701 8.65144951,24.619903 C3.8020431,24.1928223 0,20.1202573 0,15.1596777 C0,11.6435543 2.36190405,8.45466803 4.74947249,6.12706498 C6.45844234,4.46101705 8.15480387,2.3535075 8.98103525,1.96786445e-16 L10.0189648,1.96786445e-16 Z" id="path-1"></path>
    </defs>
    <g id="logo-full-white-color" stroke="none" stroke-width="1" fill="none" fill-rule="evenodd">
        <g id="logo-color-white" transform="translate(0, 1.9757)">
            <path d="M32.9893674,10.9321751 L29.8731092,10.9321751 L29.8731092,8.43916858 L32.9893674,8.43916858 L32.9893674,5.44756066 L36.0806956,5.44756066 L36.0806956,8.43916858 L39.5709048,8.43916858 L39.5709048,10.9321751 L36.0806956,10.9321751 L36.0806956,17.9125937 C36.0806956,18.2782347 36.1554858,18.5524654 36.3050662,18.7352858 C36.4214065,18.9014863 36.6790172,18.9845866 37.0778983,18.9845866 L39.5709048,18.9845866 L39.5709048,21.4028029 L36.3299963,21.4028029 C35.1167331,21.4028029 34.2566458,21.1202622 33.7497344,20.5551807 C33.2428231,19.9900992 32.9893674,19.1092369 32.9893674,17.9125937 L32.9893674,10.9321751 Z M44.2328272,14.9209858 C44.2328272,15.4860672 44.3117725,16.0345287 44.4696629,16.5663701 C44.6275532,17.0982115 44.8602339,17.5635728 45.1677047,17.9624538 C45.4751755,18.3613348 45.8574365,18.6812707 46.3144877,18.9222613 C46.771539,19.163252 47.3075354,19.2837473 47.922477,19.2837473 C48.5540387,19.2837473 49.098345,19.159097 49.5553963,18.9097963 C50.0124476,18.6604957 50.3947085,18.3322498 50.7021793,17.9250588 C51.0096501,17.5178676 51.2381757,17.0525064 51.3877561,16.528975 C51.5373366,16.0054436 51.6121268,15.4694472 51.6121268,14.9209858 C51.6121268,14.3392842 51.5373366,13.7866678 51.3877561,13.2631364 C51.2381757,12.739605 51.0096501,12.2783988 50.7021793,11.8795177 C50.3947085,11.4806367 50.0082925,11.1607008 49.5429313,10.9197101 C49.0775701,10.6787195 48.5374187,10.5582242 47.922477,10.5582242 C47.2909153,10.5582242 46.7424538,10.6787195 46.2770926,10.9197101 C45.8117314,11.1607008 45.4294704,11.4847917 45.1303096,11.8919827 C44.8311488,12.2991738 44.6067782,12.764535 44.4571979,13.2880664 C44.3076174,13.8115978 44.2328272,14.3559043 44.2328272,14.9209858 Z M54.703455,14.9209858 C54.703455,15.9348084 54.5372545,16.8613759 54.2048537,17.7006881 C53.8724527,18.5400003 53.4070915,19.2629722 52.8087699,19.8696038 C52.2104483,20.4762355 51.4957864,20.9457518 50.6647842,21.2781526 C49.8337821,21.6105535 48.9196796,21.7767539 47.922477,21.7767539 C46.9086543,21.7767539 45.9862419,21.6022435 45.1552397,21.2532225 C44.3242375,20.9042016 43.6095756,20.4263753 43.011254,19.8197437 C42.4129324,19.2131121 41.9517262,18.4901402 41.6276353,17.650828 C41.3035445,16.8115157 41.141499,15.9015683 41.141499,14.9209858 C41.141499,13.9237831 41.3118544,13.0055257 41.6525654,12.1662135 C41.9932763,11.3269012 42.4627925,10.6039294 43.0611141,9.99729767 C43.6594357,9.39066609 44.3740976,8.9169948 45.2050998,8.57628395 C46.036102,8.23557304 46.9418943,8.06521759 47.922477,8.06521759 C48.9362996,8.06521759 49.8587121,8.23557304 50.6897143,8.57628395 C51.5207165,8.9169948 52.2353784,9.39482113 52.8337,10.0097628 C53.4320215,10.6247043 53.8932278,11.3518313 54.2173187,12.1911435 C54.5414095,13.0304558 54.703455,13.9404031 54.703455,14.9209858 Z M63.2295376,10.9321751 C62.1824748,10.9321751 61.4428828,11.2022509 61.0107617,11.7424023 C60.5786405,12.2825537 60.3625799,13.0512309 60.3625799,14.0484334 L60.3625799,21.4028029 L57.2712518,21.4028029 L57.2712518,8.43916858 L60.3625799,8.43916858 L60.3625799,9.93497257 C60.761461,9.2203107 61.2683724,8.75079441 61.883314,8.52642382 C62.4982556,8.30205322 63.1962975,8.18986793 63.9774395,8.18986793 L64.7502716,8.18986793 L64.7502716,10.9321751 L63.2295376,10.9321751 Z M69.9107952,10.0596229 C70.3761564,9.36158106 70.966168,8.8546697 71.68083,8.53888885 C72.3954918,8.22310801 73.1600138,8.06521759 73.974396,8.06521759 C75.6364004,8.06521759 76.8912137,8.53473384 77.738836,9.47376627 C78.5864583,10.4127988 79.0102693,11.6883872 79.0102693,13.3005315 L79.0102693,21.4028029 L75.9189412,21.4028029 L75.9189412,13.5498321 C75.9189412,12.6024896 75.7153456,11.8878277 75.3081545,11.4058464 C74.9009635,10.9238652 74.2070766,10.6828745 73.226494,10.6828745 C72.6780325,10.6828745 72.1960513,10.7784398 71.7805502,10.9695703 C71.3650491,11.1607008 71.0201831,11.4183114 70.7459525,11.7424023 C70.4717217,12.0664932 70.2639711,12.4487542 70.1227008,12.8891854 C69.9814304,13.3296165 69.9107952,13.7991328 69.9107952,14.2977341 L69.9107952,21.4028029 L66.819467,21.4028029 L66.819467,8.43916858 L69.9107952,8.43916858 L69.9107952,10.0596229 Z M81.9769472,11.9293778 C82.1099076,11.1980959 82.3592082,10.5873093 82.7248492,10.097018 C83.0904901,9.60672667 83.5350763,9.21200063 84.0586077,8.91283987 C84.5821391,8.61367905 85.1638407,8.39761847 85.8037123,8.26465812 C86.4435841,8.13169777 87.0959207,8.06521759 87.7607225,8.06521759 C88.5584846,8.06521759 89.3105416,8.14831782 90.0168935,8.31451825 C90.7232454,8.48071869 91.338187,8.75079441 91.8617183,9.12474541 C92.3852497,9.49869638 92.7965958,9.98483267 93.0957567,10.5831543 C93.3949174,11.1814759 93.5444979,11.9210678 93.5444979,12.8019301 L93.5444979,21.4028029 L90.4531697,21.4028029 L90.4531697,19.9069989 C89.9711884,20.6050408 89.3354717,21.0911771 88.5460196,21.3654078 C87.7565675,21.6396386 86.9546504,21.7767539 86.1402683,21.7767539 C85.4588464,21.7767539 84.8272848,21.6853436 84.2455832,21.5025232 C83.6638816,21.3197027 83.1569704,21.0537821 82.7248492,20.7047611 C82.2927281,20.3557401 81.9561721,19.915309 81.7151815,19.3834675 C81.4741909,18.8516262 81.3536956,18.2366845 81.3536956,17.5386427 C81.3536956,16.8239808 81.4908109,16.2173491 81.7650416,15.7187478 C82.0392724,15.2201466 82.4090683,14.8088005 82.8744296,14.4847096 C83.3397908,14.1606188 83.8674772,13.915473 84.4574888,13.7492727 C85.0475003,13.5830722 85.6499769,13.4750419 86.2649186,13.4251818 L90.4531697,13.0512309 L90.4531697,12.8019301 C90.4531697,11.9044477 90.216334,11.2853512 89.7426627,10.9446403 C89.2689916,10.6039294 88.6083447,10.4335739 87.7607225,10.4335739 C87.4781818,10.4335739 87.1997961,10.4501939 86.9255653,10.483434 C86.6513346,10.516674 86.393724,10.5873093 86.1527333,10.6953396 C85.9117426,10.8033699 85.7039921,10.9571053 85.5294817,11.1565458 C85.3549711,11.3559863 85.2344758,11.6135969 85.1679957,11.9293778 L81.9769472,11.9293778 Z M86.6388696,19.4083976 C87.7856526,19.4083976 88.7080651,19.0884618 89.4061069,18.4485901 C90.1041487,17.8087184 90.4531697,16.923701 90.4531697,15.7935381 L90.4531697,15.2949368 L86.3895689,15.6688877 C85.8411074,15.7187478 85.3799012,15.8974133 85.0059503,16.2048841 C84.6319992,16.512355 84.4450238,16.9569411 84.4450238,17.5386427 C84.4450238,18.1702044 84.6527743,18.6355656 85.0682754,18.9347263 C85.4505364,19.2505072 85.9740678,19.4083976 86.6388696,19.4083976 Z M98.505581,10.9321751 L95.3893227,10.9321751 L95.3893227,8.43916858 L98.505581,8.43916858 L98.505581,5.44756066 L101.596909,5.44756066 L101.596909,8.43916858 L105.087118,8.43916858 L105.087118,10.9321751 L101.596909,10.9321751 L101.596909,17.9125937 C101.596909,18.2782347 101.671699,18.5524654 101.82128,18.7352858 C101.93762,18.9014863 102.195231,18.9845866 102.594112,18.9845866 L105.087118,18.9845866 L105.087118,21.4028029 L101.84621,21.4028029 C100.632947,21.4028029 99.7728594,21.1202622 99.265948,20.5551807 C98.7590367,19.9900992 98.505581,19.1092369 98.505581,17.9125937 L98.505581,10.9321751 Z M116.280718,19.9069989 C115.865217,20.6050408 115.29598,21.0911771 114.573008,21.3654078 C113.850037,21.6396386 113.10629,21.7767539 112.341768,21.7767539 C110.679763,21.7767539 109.42495,21.3072376 108.577328,20.3682052 C107.729705,19.4291727 107.305894,18.1535843 107.305894,16.54144 L107.305894,8.43916858 L110.397222,8.43916858 L110.397222,16.2921394 C110.397222,17.2228619 110.609128,17.9333687 111.032939,18.4236601 C111.456751,18.9139514 112.142327,19.159097 113.08967,19.159097 C114.186592,19.159097 114.992665,18.810076 115.507886,18.1120342 C116.023108,17.4139924 116.280718,16.5580601 116.280718,15.5442374 L116.280718,8.43916858 L119.372046,8.43916858 L119.372046,21.4028029 L116.280718,21.4028029 L116.280718,19.9069989 Z M128.670961,10.9321751 C127.623899,10.9321751 126.884306,11.2022509 126.452185,11.7424023 C126.020064,12.2825537 125.804003,13.0512309 125.804003,14.0484334 L125.804003,21.4028029 L122.712675,21.4028029 L122.712675,8.43916858 L125.804003,8.43916858 L125.804003,9.93497257 C126.202884,9.2203107 126.709796,8.75079441 127.324738,8.52642382 C127.939679,8.30205322 128.637721,8.18986793 129.418863,8.18986793 L130.191695,8.18986793 L130.191695,10.9321751 L128.670961,10.9321751 Z M132.011589,11.9293778 C132.14455,11.1980959 132.393851,10.5873093 132.759491,10.097018 C133.125133,9.60672667 133.569719,9.21200063 134.09325,8.91283987 C134.616782,8.61367905 135.198484,8.39761847 135.838355,8.26465812 C136.478227,8.13169777 137.130563,8.06521759 137.795365,8.06521759 C138.593128,8.06521759 139.345184,8.14831782 140.051536,8.31451825 C140.757888,8.48071869 141.372829,8.75079441 141.896361,9.12474541 C142.419892,9.49869638 142.831238,9.98483267 143.130399,10.5831543 C143.429559,11.1814759 143.579141,11.9210678 143.579141,12.8019301 L143.579141,21.4028029 L140.487812,21.4028029 L140.487812,19.9069989 C140.005831,20.6050408 139.370114,21.0911771 138.580663,21.3654078 C137.79121,21.6396386 136.989293,21.7767539 136.174911,21.7767539 C135.493489,21.7767539 134.861928,21.6853436 134.280226,21.5025232 C133.698524,21.3197027 133.191613,21.0537821 132.759491,20.7047611 C132.327371,20.3557401 131.990815,19.915309 131.749824,19.3834675 C131.508833,18.8516262 131.388338,18.2366845 131.388338,17.5386427 C131.388338,16.8239808 131.525453,16.2173491 131.799684,15.7187478 C132.073915,15.2201466 132.443711,14.8088005 132.909073,14.4847096 C133.374433,14.1606188 133.902119,13.915473 134.492131,13.7492727 C135.082143,13.5830722 135.68462,13.4750419 136.299561,13.4251818 L140.487812,13.0512309 L140.487812,12.8019301 C140.487812,11.9044477 140.250977,11.2853512 139.777305,10.9446403 C139.303634,10.6039294 138.642988,10.4335739 137.795365,10.4335739 C137.512825,10.4335739 137.234438,10.4501939 136.960208,10.483434 C136.685977,10.516674 136.428367,10.5873093 136.187376,10.6953396 C135.946385,10.8033699 135.738635,10.9571053 135.564124,11.1565458 C135.389614,11.3559863 135.269118,11.6135969 135.202638,11.9293778 L132.011589,11.9293778 Z M136.673512,19.4083976 C137.820295,19.4083976 138.742708,19.0884618 139.44075,18.4485901 C140.138791,17.8087184 140.487812,16.923701 140.487812,15.7935381 L140.487812,15.2949368 L136.424211,15.6688877 C135.87575,15.7187478 135.414544,15.8974133 135.040593,16.2048841 C134.666642,16.512355 134.479666,16.9569411 134.479666,17.5386427 C134.479666,18.1702044 134.687417,18.6355656 135.102918,18.9347263 C135.485179,19.2505072 136.008711,19.4083976 136.673512,19.4083976 Z" id="Combined-Shape" fill="#FFFFFF" fill-rule="nonzero"></path>
            <g id="Combined-Shape-Copy-26">
                <g id="Combined-Shape-Copy-25" fill="#FFFFFF" fill-rule="nonzero">
                    <path d="M10.0189648,1.96786445e-16 C10.8451961,2.3535075 12.5415576,4.46101705 14.2505275,6.12706498 C16.638096,8.45466803 19,11.6435543 19,15.1596777 C19,20.1203445 15.1978233,24.1929654 10.348729,24.6222813 C10.1797382,25.1685696 10.0082729,25.7322858 9.82379356,26.3090888 L9.17653983,26.3090888 C8.99199695,25.7322859 8.8204746,25.1685701 8.65144951,24.619903 C3.8020431,24.1928223 0,20.1202573 0,15.1596777 C0,11.6435543 2.36190405,8.45466803 4.74947249,6.12706498 C6.45844234,4.46101705 8.15480387,2.3535075 8.98103525,1.96786445e-16 L10.0189648,1.96786445e-16 Z" id="path-1"></path>
                </g>
                <g id="Group-Copy-2-Clipped">
                    <mask id="mask-2" fill="white">
                        <use xlink:href="#path-1"></use>
                    </mask>
                    <g id="path-1"></g>
                    <g id="Group-Copy-2" mask="url(#mask-2)">
                        <g transform="translate(-1.3234, -0.683)" id="Group">
                            <path d="M20.4706594,11.7704253 C14.0714797,15.1732433 13.0734322,20.5967977 13.9610385,26.531183 C13.0768048,26.7986027 12.1445207,26.95594 11.1803391,26.987177 C11.0290344,25.1415663 10.6552921,23.5162028 10.155065,22.0356569 L10.1575497,22.0692266 C9.62713919,17.0227075 11.6060548,14.6092288 13.7935054,12.1307013 L14.0998529,11.7841666 C15.3072545,10.4185415 16.5451825,8.99562245 17.4342729,7.07053716 C18.7587591,8.75902475 19.7708471,10.3255198 20.4706594,11.7704253 Z" id="Combined-Shape" fill="#EAFF00" fill-rule="nonzero"></path>
                            <path d="M10.8234364,0 L11.0210172,0.187810951 C12.8108719,10.2790418 6.48597069,9.00161255 7.49900893,16.2097541 C7.50636705,16.2621099 7.51364656,16.3140612 7.52084746,16.3656077 C7.46039319,16.2537712 7.40027889,16.1437089 7.34032068,16.0338947 L7.00055889,15.4099326 C5.58473001,12.797323 4.33577747,10.2662902 4.22800202,7.05100114 C5.91970323,4.89772287 8.11796897,2.54760494 10.8234364,0 Z" id="Combined-Shape" fill="#EAFF00" fill-rule="nonzero"></path>
                            <path d="M0.956154385,12.2425478 C1.60373066,13.7804932 2.60220224,15.1691604 3.6416441,16.5427035 L4.09836049,17.1434839 C5.54886902,19.0482296 6.99117149,20.9615582 7.59595441,23.242446 C7.56914486,23.1799056 7.54117051,23.1164119 7.51279678,23.0526834 C6.06707574,19.8055408 3.00132497,20.4802303 0.226174614,18.3806052 C0.0777806759,17.665991 0,16.9268358 0,16.1695138 C0,15.007199 0.306914575,13.7253822 0.920743725,12.3240633 L0.956154385,12.2425478 Z" id="Combined-Shape" fill="#EAFF00" fill-rule="nonzero"></path>
                            <path d="M0.226196784,18.380622 C3.0013413,20.4802266 6.06707958,19.8055494 7.51279678,23.0526834 C7.54074911,23.1154654 7.56831385,23.1780197 7.59549098,23.2403462 C7.88099809,24.3161026 7.98026733,25.4744189 7.8058074,26.7523421 L7.82585028,26.5724852 C4.00166923,25.4725521 1.04605561,22.321001 0.227149201,18.3859717 L0.226196784,18.380622 Z" id="Combined-Shape" fill="#6AA560" fill-rule="nonzero"></path>
                            <path d="M4.22790486,7.05128862 C4.46949782,14.2586352 10.4458378,18.0277983 11.1812621,26.985612 L10.8234364,26.9929502 C9.78370139,26.9929502 8.77820827,26.8463428 7.82650181,26.5726726 L7.8058074,26.7523421 C8.36915241,22.6258258 6.07833556,19.7464474 3.8697091,16.8431789 L3.41488784,16.2417449 C2.45829971,14.9656323 1.55636247,13.668107 0.956037274,12.2422695 C1.659725,10.6629667 2.75011382,8.93254826 4.22790486,7.05128862 Z" id="Combined-Shape" fill="#3D5D38" fill-rule="nonzero"></path>
                            <path d="M20.4709058,11.7709338 C21.2548838,13.3897543 21.6468729,14.8559477 21.6468729,16.1695138 C21.6468729,16.4458088 21.6365201,16.7196859 21.6161813,16.9907782 C19.1825541,20.0863064 13.6828469,20.4642012 13.6828469,23.6780115 L13.6886881,23.5306102 C13.5759376,18.8486612 15.1333183,14.6837152 20.2922539,11.8652836 L20.4709058,11.7709338 Z" id="Combined-Shape" fill="#3D5D38" fill-rule="nonzero"></path>
                            <path d="M13.9613158,26.5310967 C13.8090703,25.5133533 13.7122894,24.510655 13.6886881,23.5306102 L13.6828469,23.6780115 C13.6828469,20.4639972 19.1832526,20.0862583 21.6169282,16.9910953 C21.2764367,21.5145426 18.1570377,25.2621698 13.9613158,26.5310967 Z" id="Combined-Shape" fill="#6AA560" fill-rule="nonzero"></path>
                            <path d="M11.020861,0.187919144 L10.8234364,0 C13.5371739,2.55539245 15.7406042,4.91208869 17.4337272,7.07008873 C14.8482862,12.6696056 9.31162452,14.0207863 10.1575497,22.0692266 L10.155065,22.0356569 C9.4414669,19.9235868 8.47046699,18.1062263 7.52062389,16.3645978 L7.49900893,16.2097541 C7.06623178,13.1303847 7.97267203,11.5996823 9.01351659,10.0696554 L9.21632514,9.77311393 C10.5305864,7.85585051 11.9331052,5.78411379 11.0825299,0.549642936 L11.020861,0.187919144 Z" id="Combined-Shape" fill="#6AA560" fill-rule="nonzero"></path>
                        </g>
                    </g>
                </g>
            </g>
        </g>
    </g>
</svg>