<?xml version="1.0" encoding="UTF-8"?>
<svg width="107px" height="19px" viewBox="0 0 107 19" version="1.1" xmlns="http://www.w3.org/2000/svg" xmlns:xlink="http://www.w3.org/1999/xlink">
    <title>logo-text-white</title>
    <g id="logo-text-white" stroke="none" stroke-width="1" fill="none" fill-rule="evenodd">
        <path d="M2.91375148,6.12820269 L7.10542736e-14,6.12820269 L7.10542736e-14,3.79720148 L2.91375148,3.79720148 L2.91375148,1 L5.80419301,1 L5.80419301,3.79720148 L9.06759475,3.79720148 L9.06759475,6.12820269 L5.80419301,6.12820269 L5.80419301,12.6550062 C5.80419301,12.9968864 5.87412306,13.2532966 6.01398317,13.4242366 C6.12276317,13.5796367 6.36363333,13.6573368 6.73659355,13.6573368 L9.06759475,13.6573368 L9.06759475,15.9184079 L6.03729322,15.9184079 C4.90287257,15.9184079 4.09867716,15.6542278 3.62470689,15.1258675 C3.15073661,14.5975073 2.91375148,13.7738868 2.91375148,12.6550062 L2.91375148,6.12820269 Z M13.4265671,9.85780475 C13.4265671,10.386165 13.5003822,10.8989853 13.6480122,11.3962655 C13.7956423,11.8935457 14.0132024,12.3286661 14.3006926,12.7016262 C14.5881827,13.0745864 14.9456029,13.3737315 15.3729531,13.5990617 C15.8003034,13.8243919 16.3014686,13.9370569 16.8764489,13.9370569 C17.4669693,13.9370569 17.9759045,13.8205068 18.4032547,13.5874067 C18.830605,13.3543066 19.1880251,13.0473914 19.4755153,12.6666613 C19.7630054,12.285931 19.9766805,11.8508108 20.1165406,11.3613005 C20.2564007,10.8717902 20.3263308,10.370625 20.3263308,9.85780475 C20.3263308,9.31390443 20.2564007,8.79719918 20.1165406,8.30768891 C19.9766805,7.81817864 19.7630054,7.38694344 19.4755153,7.01398323 C19.1880251,6.64102301 18.82672,6.34187787 18.3915998,6.11654771 C17.9564795,5.89121755 17.4514293,5.77855252 16.8764489,5.77855252 C16.2859286,5.77855252 15.7731083,5.89121755 15.3379881,6.11654771 C14.9028679,6.34187787 14.5454477,6.64490804 14.2657275,7.0256382 C13.9860074,7.40636837 13.7762173,7.84148859 13.6363573,8.33099886 C13.4964971,8.82050913 13.4265671,9.32944443 13.4265671,9.85780475 Z M23.2167723,9.85780475 C23.2167723,10.8057452 23.0613722,11.6721007 22.7505721,12.4568711 C22.4397719,13.2416415 22.0046517,13.9176319 21.4452113,14.4848421 C20.885771,15.0520525 20.2175507,15.4910578 19.4405503,15.8018579 C18.6635499,16.1126581 17.8088494,16.2680581 16.8764489,16.2680581 C15.9285084,16.2680581 15.066038,16.104888 14.2890376,15.7785478 C13.5120371,15.4522077 12.8438168,15.0054324 12.2843765,14.4382221 C11.7249362,13.8710119 11.293701,13.1950215 10.9906708,12.4102511 C10.6876406,11.6254806 10.5361256,10.7746652 10.5361256,9.85780475 C10.5361256,8.92540421 10.6954106,8.06681875 11.0139809,7.28204836 C11.332551,6.49727788 11.7715562,5.8212876 12.3309965,5.25407722 C12.8904368,4.68686695 13.5586571,4.24397668 14.3356576,3.92540655 C15.112658,3.60683638 15.9595884,3.4475513 16.8764489,3.4475513 C17.8243894,3.4475513 18.6868599,3.60683638 19.4638603,3.92540655 C20.2408607,4.24397668 20.9090811,4.69075197 21.4685214,5.2657323 C22.0279616,5.84071252 22.4591969,6.52058793 22.7622271,7.30535831 C23.0652572,8.0901288 23.2167723,8.94094421 23.2167723,9.85780475 Z M31.1887966,6.12820269 C30.209776,6.12820269 29.5182457,6.38072782 29.1142054,6.8857781 C28.7101652,7.39082837 28.5081451,8.10955383 28.5081451,9.04195427 L28.5081451,15.9184079 L25.6177036,15.9184079 L25.6177036,3.79720148 L28.5081451,3.79720148 L28.5081451,5.19580225 C28.8811053,4.52758192 29.3550756,4.08857664 29.9300559,3.87878653 C30.5050361,3.66899641 31.1577166,3.56410136 31.8880969,3.56410136 L32.6107073,3.56410136 L32.6107073,6.12820269 L31.1887966,6.12820269 Z M37.4358799,5.3123523 C37.8710001,4.65967197 38.4226704,4.1857017 39.0908908,3.89044154 C39.7591111,3.59518137 40.4739514,3.4475513 41.2354119,3.4475513 C42.7894127,3.4475513 43.9626833,3.88655653 44.7552238,4.76456695 C45.5477642,5.64257744 45.9440344,6.83527307 45.9440344,8.34265394 L45.9440344,15.9184079 L43.0535929,15.9184079 L43.0535929,8.57575405 C43.0535929,7.68997351 42.8632277,7.02175318 42.4824976,6.57109296 C42.1017674,6.12043274 41.452972,5.89510258 40.5361115,5.89510258 C40.0232912,5.89510258 39.572631,5.98445766 39.1841308,6.16316771 C38.7956306,6.34187787 38.4731754,6.58274793 38.2167653,6.8857781 C37.9603552,7.18880826 37.766105,7.54622847 37.6340149,7.95803874 C37.5019249,8.36984891 37.4358799,8.80885416 37.4358799,9.27505438 L37.4358799,15.9184079 L34.5454383,15.9184079 L34.5454383,3.79720148 L37.4358799,3.79720148 L37.4358799,5.3123523 Z M48.7179259,7.06060323 C48.842246,6.3768429 49.0753461,5.8057476 49.4172263,5.34731733 C49.7591064,4.88888706 50.1748016,4.51981187 50.6643119,4.24009175 C51.1538221,3.96037157 51.6977225,3.75835146 52.2960127,3.6340314 C52.8943031,3.50971133 53.5042484,3.4475513 54.1258487,3.4475513 C54.8717691,3.4475513 55.5749545,3.52525134 56.2354049,3.68065142 C56.8958552,3.83605151 57.4708356,4.08857664 57.9603457,4.43822684 C58.449856,4.787877 58.8344712,5.24242225 59.1141914,5.80186257 C59.3939115,6.3613029 59.5337716,7.05283318 59.5337716,7.87645361 L59.5337716,15.9184079 L56.6433301,15.9184079 L56.6433301,14.5198072 C56.1926699,15.1724875 55.5982645,15.6270327 54.8601142,15.8834429 C54.1219638,16.1398531 53.3721583,16.2680581 52.610698,16.2680581 C51.9735576,16.2680581 51.3830373,16.182588 50.839137,16.011648 C50.2952367,15.8407079 49.8212665,15.5920678 49.4172263,15.2657276 C49.0131861,14.9393874 48.6985008,14.5275772 48.4731708,14.0302969 C48.2478406,13.5330167 48.1351756,12.9580363 48.1351756,12.305356 C48.1351756,11.6371357 48.2633806,11.0699253 48.5197908,10.6037251 C48.7762009,10.1375249 49.1219661,9.75290967 49.5570863,9.44987951 C49.9922065,9.14684935 50.4856018,8.91763416 51.0372721,8.76223415 C51.5889424,8.60683405 52.1522677,8.50582399 52.727248,8.45920399 L56.6433301,8.10955383 L56.6433301,7.87645361 C56.6433301,7.03729318 56.421885,6.45842793 55.9789947,6.13985776 C55.5361045,5.8212876 54.9183891,5.66200247 54.1258487,5.66200247 C53.8616686,5.66200247 53.6013735,5.67754247 53.3449633,5.70862247 C53.0885532,5.73970247 52.8476831,5.8057476 52.622353,5.90675765 C52.3970228,6.00776771 52.2027727,6.15151274 52.0396027,6.33799285 C51.8764325,6.52447295 51.7637675,6.76534301 51.7016075,7.06060323 L48.7179259,7.06060323 Z M53.0768982,14.0536069 C54.1491587,14.0536069 55.0116292,13.7544618 55.6643096,13.1561714 C56.3169899,12.5578811 56.6433301,11.7303757 56.6433301,10.6736551 L56.6433301,10.2074549 L52.8437981,10.5571051 C52.3309778,10.6037251 51.8997426,10.7707802 51.5500924,11.0582703 C51.2004421,11.3457605 51.0256171,11.7614557 51.0256171,12.305356 C51.0256171,12.8958763 51.2198672,13.3309966 51.6083674,13.6107167 C51.9657876,13.9059769 52.4552979,14.0536069 53.0768982,14.0536069 Z M64.1724641,6.12820269 L61.2587125,6.12820269 L61.2587125,3.79720148 L64.1724641,3.79720148 L64.1724641,1 L67.0629056,1 L67.0629056,3.79720148 L70.3263074,3.79720148 L70.3263074,6.12820269 L67.0629056,6.12820269 L67.0629056,12.6550062 C67.0629056,12.9968864 67.1328357,13.2532966 67.2726958,13.4242366 C67.3814758,13.5796367 67.6223459,13.6573368 67.9953062,13.6573368 L70.3263074,13.6573368 L70.3263074,15.9184079 L67.2960057,15.9184079 C66.1615852,15.9184079 65.3573898,15.6542278 64.8834195,15.1258675 C64.4094492,14.5975073 64.1724641,13.7738868 64.1724641,12.6550062 L64.1724641,6.12820269 Z M80.7925033,14.5198072 C80.4040028,15.1724875 79.8717572,15.6270327 79.1957666,15.8834429 C78.5197771,16.1398531 77.8243619,16.2680581 77.109521,16.2680581 C75.5555199,16.2680581 74.3822497,15.8290528 73.5897094,14.9510425 C72.7971687,14.073032 72.4008985,12.8803363 72.4008985,11.3729555 L72.4008985,3.79720148 L75.2913398,3.79720148 L75.2913398,11.1398554 C75.2913398,12.0100959 75.4894754,12.6744312 75.8857456,13.1328615 C76.2820158,13.5912917 76.9230404,13.8205068 77.8088215,13.8205068 C78.8344614,13.8205068 79.5881525,13.4941666 80.0698928,12.8414863 C80.5516331,12.188806 80.7925033,11.3884956 80.7925033,10.440555 L80.7925033,3.79720148 L83.6829442,3.79720148 L83.6829442,15.9184079 L80.7925033,15.9184079 L80.7925033,14.5198072 Z M92.3775789,6.12820269 C91.398559,6.12820269 90.7070281,6.38072782 90.3029883,6.8857781 C89.8989475,7.39082837 89.6969276,8.10955383 89.6969276,9.04195427 L89.6969276,15.9184079 L86.8064856,15.9184079 L86.8064856,3.79720148 L89.6969276,3.79720148 L89.6969276,5.19580225 C90.0698878,4.52758192 90.5438585,4.08857664 91.1188386,3.87878653 C91.6938187,3.66899641 92.3464993,3.56410136 93.0768795,3.56410136 L93.79949,3.56410136 L93.79949,6.12820269 L92.3775789,6.12820269 Z M95.5011204,7.06060323 C95.6254408,6.3768429 95.8585413,5.8057476 96.2004209,5.34731733 C96.5423015,4.88888706 96.9579963,4.51981187 97.4475063,4.24009175 C97.9370173,3.96037157 98.4809178,3.75835146 99.0792079,3.6340314 C99.6774979,3.50971133 100.287443,3.4475513 100.909044,3.4475513 C101.654964,3.4475513 102.358149,3.52525134 103.0186,3.68065142 C103.67905,3.83605151 104.25403,4.08857664 104.743541,4.43822684 C105.233051,4.787877 105.617666,5.24242225 105.897387,5.80186257 C106.177106,6.3613029 106.316967,7.05283318 106.316967,7.87645361 L106.316967,15.9184079 L103.426525,15.9184079 L103.426525,14.5198072 C102.975865,15.1724875 102.381459,15.6270327 101.643309,15.8834429 C100.905159,16.1398531 100.155353,16.2680581 99.3938932,16.2680581 C98.7567529,16.2680581 98.1662324,16.182588 97.6223319,16.011648 C97.0784314,15.8407079 96.6044617,15.5920678 96.2004209,15.2657276 C95.7963811,14.9393874 95.4816958,14.5275772 95.2563659,14.0302969 C95.031035,13.5330167 94.9183706,12.9580363 94.9183706,12.305356 C94.9183706,11.6371357 95.0465753,11.0699253 95.3029858,10.6037251 C95.5593963,10.1375249 95.9051612,9.75290967 96.3402816,9.44987951 C96.775401,9.14684935 97.2687963,8.91763416 97.8204665,8.76223415 C98.3721377,8.60683405 98.9354628,8.50582399 99.510443,8.45920399 L103.426525,8.10955383 L103.426525,7.87645361 C103.426525,7.03729318 103.20508,6.45842793 102.762189,6.13985776 C102.319299,5.8212876 101.701584,5.66200247 100.909044,5.66200247 C100.644864,5.66200247 100.384568,5.67754247 100.128159,5.70862247 C99.8717482,5.73970247 99.630878,5.8057476 99.4055482,5.90675765 C99.1802173,6.00776771 98.9859681,6.15151274 98.8227974,6.33799285 C98.6596277,6.52447295 98.5469623,6.76534301 98.4848021,7.06060323 L95.5011204,7.06060323 Z M99.8600932,14.0536069 C100.932354,14.0536069 101.794824,13.7544618 102.447505,13.1561714 C103.100184,12.5578811 103.426525,11.7303757 103.426525,10.6736551 L103.426525,10.2074549 L99.6269927,10.5571051 C99.1141728,10.6037251 98.6829377,10.7707802 98.3332874,11.0582703 C97.9836372,11.3457605 97.8088115,11.7614557 97.8088115,12.305356 C97.8088115,12.8958763 98.0030618,13.3309966 98.3915623,13.6107167 C98.7489822,13.9059769 99.2384932,14.0536069 99.8600932,14.0536069 Z" id="Combined-Shape" fill="#FFFFFF" fill-rule="nonzero"></path>
    </g>
</svg>