<?xml version="1.0" encoding="UTF-8"?>
<svg width="17px" height="30px" viewBox="0 0 17 30" version="1.1" xmlns="http://www.w3.org/2000/svg" xmlns:xlink="http://www.w3.org/1999/xlink">
    <title>logo-leaf-color</title>
    <defs>
        <path d="M8.75880544,1.72035157e-16 C9.48111555,2.05748944 10.9641131,3.89992192 12.4581332,5.35641867 C14.5453995,7.39126186 16.6102294,10.1790583 16.6102294,13.2529328 C16.6102294,17.5896599 13.2862806,21.1500371 9.04709274,21.5253547 C8.89935716,22.0029323 8.74945839,22.4957458 8.58818235,23 L8.02233851,23 C7.86100695,22.4957459 7.71105824,22.0029328 7.56329268,21.5232756 C3.32383201,21.149912 0,17.5895837 0,13.2529328 C0,10.1790583 2.0648299,7.39126186 4.15209618,5.35641867 C5.64611625,3.89992192 7.12911384,2.05748944 7.85142398,1.72035157e-16 L8.75880544,1.72035157e-16 Z" id="path-1"></path>
    </defs>
    <g id="logo-leaf-color" stroke="none" stroke-width="1" fill="none" fill-rule="evenodd">
        <g id="Combined-Shape-Copy-26-Copy-7" transform="translate(0.1949, 1.9757)">
            <g id="Combined-Shape-Copy-25" fill="#FFFFFF" fill-rule="nonzero">
                <path d="M8.75880544,1.72035157e-16 C9.48111555,2.05748944 10.9641131,3.89992192 12.4581332,5.35641867 C14.5453995,7.39126186 16.6102294,10.1790583 16.6102294,13.2529328 C16.6102294,17.5896599 13.2862806,21.1500371 9.04709274,21.5253547 C8.89935716,22.0029323 8.74945839,22.4957458 8.58818235,23 L8.02233851,23 C7.86100695,22.4957459 7.71105824,22.0029328 7.56329268,21.5232756 C3.32383201,21.149912 0,17.5895837 0,13.2529328 C0,10.1790583 2.0648299,7.39126186 4.15209618,5.35641867 C5.64611625,3.89992192 7.12911384,2.05748944 7.85142398,1.72035157e-16 L8.75880544,1.72035157e-16 Z" id="path-1"></path>
            </g>
            <g id="Group-Copy-2-Clipped">
                <mask id="mask-2" fill="white">
                    <use xlink:href="#path-1"></use>
                </mask>
                <g id="path-1"></g>
                <g id="Group-Copy-2" mask="url(#mask-2)">
                    <g transform="translate(-1.157, -0.5971)" id="Group">
                        <path d="M17.8959131,10.2899718 C12.3016055,13.2647922 11.4290898,18.0061861 12.2050554,23.1941598 C11.4320383,23.4279441 10.6170144,23.565492 9.77410512,23.5928 C9.64183114,21.9793255 9.31509715,20.558396 8.87778736,19.2640693 L8.87995951,19.2934167 C8.41626265,14.8816356 10.1462754,12.771718 12.0585942,10.6049332 L12.3264101,10.3019848 C13.3819478,9.10812443 14.4641725,7.86417644 15.2414354,6.18122338 C16.3993311,7.65733739 17.2841214,9.02680278 17.8959131,10.2899718 Z" id="Combined-Shape" fill="#EAFF00" fill-rule="nonzero"></path>
                        <path d="M9.46209271,0 L9.63482233,0.164188577 C11.1995537,8.98617063 5.67018216,7.86941313 6.55580308,14.1709334 C6.56223572,14.216704 6.56859963,14.2621209 6.57489482,14.3071841 C6.52204432,14.2094141 6.46949104,14.1131951 6.41707423,14.0171931 L6.12004679,13.4717114 C4.88229719,11.187709 3.79043465,8.97502287 3.69621492,6.16414454 C5.17513835,4.28170002 7.09691193,2.22717382 9.46209271,0 Z" id="Combined-Shape" fill="#EAFF00" fill-rule="nonzero"></path>
                        <path d="M0.835891772,10.7027119 C1.40201759,12.0472185 2.27490401,13.2612228 3.18360757,14.4620053 L3.58287936,14.9872211 C4.8509467,16.6523928 6.11184011,18.3250679 6.64055501,20.3190715 C6.6171175,20.2643974 6.59266169,20.2088897 6.56785673,20.1531768 C5.30397473,17.3144513 2.62382612,17.9042801 0.197726959,16.0687404 C0.0679976246,15.4440086 0,14.7978224 0,14.1357544 C0,13.1196325 0.268311657,11.9990393 0.804934973,10.7739747 L0.835891772,10.7027119 Z" id="Combined-Shape" fill="#EAFF00" fill-rule="nonzero"></path>
                        <path d="M0.19774634,16.0687551 C2.62384039,17.9042769 5.30397808,17.3144589 6.56785673,20.1531768 C6.59229329,20.2080623 6.61639101,20.2627486 6.64014987,20.3172358 C6.88974664,21.2576865 6.97653005,22.2703127 6.82401324,23.3875021 L6.84153517,23.2302671 C3.49834967,22.2686807 0.914485453,19.5135235 0.198578965,16.0734319 L0.19774634,16.0687551 Z" id="Combined-Shape" fill="#6AA560" fill-rule="nonzero"></path>
                        <path d="M3.69612997,6.16439587 C3.907336,12.4652211 9.13198746,15.7603087 9.774912,23.5914319 L9.46209271,23.5978471 C8.55313286,23.5978471 7.67410805,23.4696796 6.84210476,23.2304309 L6.82401324,23.3875021 C7.31650217,19.7800083 5.31381831,17.2627905 3.38298715,14.7246876 L2.98537212,14.1989004 C2.14910116,13.083294 1.36060724,11.948968 0.835789391,10.7024687 C1.45096911,9.32180647 2.40421165,7.80903556 3.69612997,6.16439587 Z" id="Combined-Shape" fill="#3D5D38" fill-rule="nonzero"></path>
                        <path d="M17.8961285,10.2904164 C18.5814998,11.7056258 18.9241855,12.9874052 18.9241855,14.1357544 C18.9241855,14.3772977 18.9151348,14.6167273 18.8973542,14.8537223 C16.7698223,17.559903 11.961854,17.8902672 11.961854,20.6998528 L11.9669605,20.5709912 C11.8683915,16.4779256 13.2298888,12.8368357 17.739947,10.3728991 L17.8961285,10.2904164 Z" id="Combined-Shape" fill="#3D5D38" fill-rule="nonzero"></path>
                        <path d="M12.2052978,23.1940843 C12.0722013,22.30435 11.9875933,21.4277686 11.9669605,20.5709912 L11.961854,20.6998528 C11.961854,17.8900888 16.770433,17.559861 18.8980071,14.8539995 C18.6003418,18.8084993 15.8732927,22.0847598 12.2052978,23.1940843 Z" id="Combined-Shape" fill="#6AA560" fill-rule="nonzero"></path>
                        <path d="M9.63468572,0.164283163 L9.46209271,0 C11.8345034,2.23398183 13.7607919,4.29425895 15.2409583,6.18083135 C12.9807073,11.0760555 8.1404326,12.2572883 8.87995951,19.2934167 L8.87778736,19.2640693 C8.25394373,17.4176498 7.40507367,15.8288722 6.57469937,14.3063012 L6.55580308,14.1709334 C6.17745951,11.4788791 6.96989007,10.1407044 7.87981991,8.80312033 L8.05711972,8.54387707 C9.20607662,6.86776206 10.4321903,5.056603 9.68859812,0.480510276 L9.63468572,0.164283163 Z" id="Combined-Shape" fill="#6AA560" fill-rule="nonzero"></path>
                    </g>
                </g>
            </g>
        </g>
    </g>
</svg>