<?xml version="1.0" encoding="UTF-8"?>
<svg width="17px" height="11px" viewBox="0 0 17 11" version="1.1" xmlns="http://www.w3.org/2000/svg" xmlns:xlink="http://www.w3.org/1999/xlink">
    <title>sortable</title>
    <g id="sortable" stroke="none" fill="none" transform="translate(0.0481, 0.3268)" fill-rule="evenodd" opacity="0.5">
        <path d="M6.39521718,6.61544782 L6.39521718,10.2234664 C6.39521718,10.3891518 6.2609026,10.5234664 6.09521718,10.5234664 C6.02302446,10.5234664 5.95325282,10.4974334 5.89870455,10.4501441 L3.81777619,8.6461348 C3.69258555,8.53760387 3.67908018,8.3481351 3.78761111,8.22294445 C3.79693758,8.21218635 3.80701809,8.20210584 3.8177762,8.19277937 L5.89870455,6.38877011 C6.0238952,6.28023918 6.21336397,6.29374455 6.3218949,6.41893519 C6.36918417,6.47348346 6.39521718,6.5432551 6.39521718,6.61544782 Z" id="Path-7-Copy" fill="#000000" transform="translate(4.9758, 8.4195) rotate(-90) translate(-4.9758, -8.4195)"></path>
        <path d="M6.39521718,2.27611362 L6.39521718,5.88413216 C6.39521718,6.04981758 6.2609026,6.18413216 6.09521718,6.18413216 C6.02302446,6.18413216 5.95325282,6.15809915 5.89870455,6.11080988 L3.81777619,4.30680059 C3.69258555,4.19826967 3.67908018,4.0088009 3.78761111,3.88361025 C3.79693758,3.87285214 3.80701809,3.86277164 3.8177762,3.85344516 L5.89870455,2.0494359 C6.0238952,1.94090497 6.21336397,1.95441034 6.3218949,2.07960099 C6.36918417,2.13414926 6.39521718,2.2039209 6.39521718,2.27611362 Z" id="Path-7-Copy-Copy" fill="#000000" transform="translate(4.9758, 4.0801) scale(1, -1) rotate(-90) translate(-4.9758, -4.0801)"></path>
    </g>
</svg>