<?xml version="1.0" encoding="UTF-8"?>
<svg width="140px" height="14px" viewBox="0 0 140 14" version="1.1" xmlns="http://www.w3.org/2000/svg" xmlns:xlink="http://www.w3.org/1999/xlink">
    <title>legend-cimice</title>
    <defs>
        <path d="M0,0 L139,0 L139,14 L0,14 L0,0 Z" id="path-1"></path>
    </defs>
    <g id="legend-cimice" stroke="none" fill="none" transform="translate(0.5, 0)" xlink:href="#path-1" fill-rule="evenodd">
        <use fill="#FFFFFF" xlink:href="#path-1"></use>
        <g id="Group" stroke-width="1" transform="translate(2, 0)" fill="#000000">
            <g id="Totale-di-larve-e-ad" transform="translate(14, 0)" fill-rule="nonzero">
                <polygon id="Path" points="0.485748291 4.05215454 0.485748291 2.99707031 6.69599152 2.99707031 6.69599152 4.05215454 4.20900726 4.05215454 4.20900726 11 2.98162842 11 2.98162842 4.05215454"></polygon>
                <path d="M9.94200628,11.1250458 C9.37837713,11.1250458 8.88657237,10.9959717 8.466592,10.7378235 C8.04661163,10.4796753 7.72058345,10.1180216 7.48850744,9.65286255 C7.25643143,9.18770345 7.14039342,8.64718119 7.14039342,8.03129578 C7.14039342,7.40657043 7.25643143,6.86090088 7.48850744,6.39428711 C7.72058345,5.92767334 8.04661163,5.56529236 8.466592,5.30714417 C8.88657237,5.04899597 9.37837713,4.91992188 9.94200628,4.91992188 C10.5085448,4.91992188 11.0022098,5.04899597 11.4230015,5.30714417 C11.8437931,5.56529236 12.1702269,5.92767334 12.4023029,6.39428711 C12.6343789,6.86090088 12.7504169,7.40657043 12.7504169,8.03129578 C12.7504169,8.64718119 12.6343789,9.18770345 12.4023029,9.65286255 C12.1702269,10.1180216 11.8437931,10.4796753 11.4230015,10.7378235 C11.0022098,10.9959717 10.5085448,11.1250458 9.94200628,11.1250458 Z M9.94200628,10.1259384 C10.3072966,10.1259384 10.6091968,10.0301539 10.847707,9.8385849 C11.0862171,9.64701589 11.2632953,9.39235051 11.3789417,9.07458878 C11.4945881,8.75682704 11.5524112,8.40841929 11.5524112,8.02936554 C11.5524112,7.64673106 11.4945881,7.29555384 11.3789417,6.97583389 C11.2632953,6.65611394 11.0862171,6.40004985 10.847707,6.2076416 C10.6091968,6.01523336 10.3072966,5.91902924 9.94200628,5.91902924 C9.57895391,5.91902924 9.27948746,6.01523336 9.04360693,6.2076416 C8.80772639,6.40004985 8.63194896,6.65537262 8.51627462,6.97360992 C8.40060028,7.29184723 8.34276311,7.64376577 8.34276311,8.02936554 C8.34276311,8.40841929 8.40060028,8.75682704 8.51627462,9.07458878 C8.63194896,9.39235051 8.80772639,9.64701589 9.04360693,9.8385849 C9.27948746,10.0301539 9.57895391,10.1259384 9.94200628,10.1259384 Z" id="Shape"></path>
                <path d="M16.9330476,4.99511719 L16.9330476,5.95570374 L13.675815,5.95570374 L13.675815,4.99511719 L16.9330476,4.99511719 Z M14.5529817,3.56640625 L15.7344545,3.56640625 L15.7344545,9.37566376 C15.7344545,9.61842601 15.7850323,9.7961057 15.8861879,9.90870285 C15.9873435,10.0213 16.1550503,10.0775986 16.3893083,10.0775986 C16.4507961,10.0775986 16.5315724,10.0702693 16.631637,10.0556107 C16.7317015,10.040952 16.8175691,10.0264613 16.8892396,10.0121384 L17.0986284,10.9590454 C16.9719041,11.0006714 16.8367736,11.0309258 16.6932367,11.0498085 C16.5496998,11.0686913 16.4091422,11.0781326 16.2715639,11.0781326 C15.7246634,11.0781326 15.301508,10.9381065 15.0020975,10.6580544 C14.702687,10.3780022 14.5529817,9.98301697 14.5529817,9.47309875 L14.5529817,3.56640625 Z" id="Shape"></path>
                <path d="M20.1384645,11.1319275 C19.7582917,11.1319275 19.4146257,11.0617676 19.1074662,10.9214478 C18.8003068,10.7811279 18.557027,10.5747185 18.3776269,10.3022194 C18.1982268,10.0297203 18.1085267,9.69619497 18.1085267,9.30164337 C18.1085267,8.96046702 18.1743086,8.68084844 18.3058725,8.46278763 C18.4374363,8.24472682 18.6144866,8.07167689 18.8370233,7.94363785 C19.05956,7.81559881 19.3078892,7.71936671 19.5820108,7.65494156 C19.8561324,7.59051641 20.135723,7.54168701 20.4207826,7.50845337 C20.774995,7.46576436 21.0627961,7.43092219 21.2841859,7.40392685 C21.5055757,7.37693151 21.6692682,7.33220037 21.7752633,7.26973343 C21.8812585,7.20726649 21.9342561,7.10550944 21.9342561,6.96446228 L21.9342561,6.93416595 C21.9342561,6.70997874 21.8910915,6.52022807 21.8047624,6.36491394 C21.7184332,6.20959981 21.5899047,6.09038671 21.4191766,6.00727463 C21.2484486,5.92416255 21.0359966,5.88260651 20.7818208,5.88260651 C20.5224417,5.88260651 20.2990798,5.92286174 20.1117349,6.00337219 C19.92439,6.08388265 19.7719992,6.18628311 19.6545625,6.31057358 C19.5371258,6.43486404 19.4497056,6.56521098 19.3923021,6.70161438 L18.2804017,6.41577148 C18.416973,6.05568441 18.6124165,5.76641464 18.8667321,5.54796219 C19.1210478,5.32950974 19.4126814,5.17022324 19.741633,5.07010269 C20.0705845,4.96998215 20.4119147,4.91992188 20.7656236,4.91992188 C21.0067633,4.91992188 21.2634009,4.94876353 21.5355363,5.00644684 C21.8076717,5.06413015 22.0634421,5.16780345 22.3028474,5.31746674 C22.5422527,5.46713003 22.7375843,5.67864482 22.8888421,5.95201111 C23.0401,6.2253774 23.1157289,6.5791982 23.1157289,7.01347351 L23.1157289,11 L21.9726091,11 L21.9726091,10.177803 L21.9120164,10.177803 C21.8343034,10.3328934 21.7184892,10.4837735 21.5645738,10.6304436 C21.4106584,10.7771136 21.2159982,10.8973618 20.9805932,10.991188 C20.7451883,11.0850143 20.4644787,11.1319275 20.1384645,11.1319275 Z M20.4007249,10.1860275 C20.7239976,10.1860275 20.9999795,10.1226514 21.2286706,9.9958992 C21.4573617,9.86914698 21.6327755,9.70257314 21.7549119,9.49617767 C21.8770484,9.28978221 21.9381166,9.07032267 21.9381166,8.83779907 L21.9381166,8.06620789 C21.8955395,8.1082255 21.8141198,8.14659246 21.6938577,8.18130875 C21.5735955,8.21602503 21.4371222,8.24672699 21.2844377,8.27341461 C21.1317532,8.30010223 20.9831529,8.32281748 20.8386369,8.34156036 C20.6941209,8.36030324 20.5759568,8.3753535 20.4841447,8.38671112 C20.2630347,8.41474152 20.0600241,8.4627037 19.875113,8.53059769 C19.6902019,8.59849167 19.5433221,8.69505946 19.4344735,8.82030106 C19.325625,8.94554265 19.2712007,9.11147308 19.2712007,9.31809235 C19.2712007,9.50837453 19.320072,9.66770299 19.4178148,9.79607773 C19.5155575,9.92445246 19.6491494,10.0215378 19.8185907,10.0873337 C19.9880319,10.1531296 20.1820766,10.1860275 20.4007249,10.1860275 Z" id="Shape"></path>
                <polygon id="Path" points="26.1860724 2.99707031 26.1860724 11 25.0046836 11 25.0046836 2.99707031"></polygon>
                <path d="M30.6632852,11.1250458 C30.0722411,11.1250458 29.5624907,10.9972725 29.1340341,10.7417259 C28.7055775,10.4861794 28.3758846,10.127449 28.1449556,9.66553497 C27.9140265,9.20362091 27.798562,8.66181183 27.798562,8.04010773 C27.798562,7.42355092 27.9119844,6.88122431 28.1388292,6.4131279 C28.365674,5.94503148 28.6866528,5.57913971 29.1017656,5.31545258 C29.5168784,5.05176544 30.00334,4.91992188 30.5611505,4.91992188 C30.904341,4.91992188 31.2359501,4.97595469 31.5559778,5.08802032 C31.8760054,5.20008596 32.1630512,5.376297 32.4171152,5.61665344 C32.6711791,5.85700989 32.8724412,6.16843541 33.0209016,6.55093002 C33.169362,6.93342463 33.2435922,7.39540863 33.2435922,7.93688202 L33.2435922,8.35616302 L28.4557657,8.35616302 L28.4557657,7.47396088 L32.6345605,7.47396088 L32.0828485,7.76509094 C32.0828485,7.39829 32.0257666,7.07437388 31.9116029,6.79334259 C31.7974392,6.5123113 31.627956,6.29269791 31.4031534,6.13450241 C31.1783507,5.97630692 30.8989699,5.89720917 30.565011,5.89720917 C30.231052,5.89720917 29.9458106,5.97777557 29.7092866,6.13890839 C29.4727627,6.3000412 29.2922576,6.5123113 29.1677713,6.77571869 C29.043285,7.03912608 28.9810418,7.32633972 28.9810418,7.63735962 L28.9810418,8.23690796 C28.9810418,8.64869181 29.0517473,8.99719747 29.1931581,9.28242493 C29.3345689,9.56765238 29.5329077,9.78318151 29.7881746,9.9290123 C30.0434414,10.0748431 30.3392012,10.1477585 30.6754541,10.1477585 C30.8956689,10.1477585 31.0958541,10.1161474 31.2760095,10.0529251 C31.4561649,9.98970286 31.6112273,9.89464569 31.7411966,9.7677536 C31.8711659,9.64086151 31.9708388,9.48375702 32.0402154,9.29644012 L33.1488428,9.5581131 C33.054457,9.86918894 32.8933521,10.1423734 32.6655282,10.3776665 C32.4377043,10.6129595 32.154505,10.796346 31.8159303,10.9278259 C31.4773556,11.0593058 31.0931405,11.1250458 30.6632852,11.1250458 Z" id="Path"></path>
                <path d="M40.2980235,11.1192551 C39.8131704,11.1192551 39.3812729,10.9948807 39.0023311,10.7461319 C38.6233892,10.4973831 38.3264964,10.1412265 38.1116526,9.6776619 C37.8968089,9.21409734 37.789387,8.65879059 37.789387,8.01174164 C37.789387,7.36116791 37.8985153,6.80500793 38.116772,6.34326172 C38.3350286,5.8815155 38.633474,5.52885564 39.0121081,5.28528214 C39.3907423,5.04170863 39.8195486,4.91992187 40.298527,4.91992187 C40.6720978,4.91992187 40.972977,4.98195521 41.2011645,5.10602188 C41.4293521,5.23008855 41.6078011,5.37439473 41.7365115,5.53894043 C41.8652219,5.70348612 41.9627548,5.84816996 42.0291102,5.97299194 L42.0965846,5.97299194 L42.0965846,2.99707031 L43.2779734,2.99707031 L43.2779734,11 L42.1268809,11 L42.1268809,10.0601425 L42.0291102,10.0601425 C41.961468,10.1879298 41.8616692,10.334432 41.7297137,10.499649 C41.5977582,10.6648661 41.417421,10.8094381 41.1887019,10.9333649 C40.9599828,11.0572917 40.66309,11.1192551 40.2980235,11.1192551 Z M40.5600322,10.1123428 C40.8949422,10.1123428 41.1780576,10.0233281 41.4093783,9.84529877 C41.640699,9.66726939 41.8161408,9.41977946 41.9357036,9.10282898 C42.0552663,8.7858785 42.1150477,8.4192454 42.1150477,8.00292969 C42.1150477,7.58532715 42.0560077,7.22156143 41.9379275,6.91163254 C41.8198474,6.60170364 41.645147,6.36007436 41.4138263,6.18674469 C41.1825056,6.01341502 40.8979075,5.92675018 40.5600322,5.92675018 C40.2133169,5.92675018 39.9238932,6.01780701 39.6917613,6.19992065 C39.4596293,6.3820343 39.2855723,6.62953822 39.1695903,6.9424324 C39.0536082,7.25532659 38.9956172,7.60882568 38.9956172,8.00292969 C38.9956172,8.3993276 39.0543495,8.75689697 39.1718142,9.07563782 C39.2892789,9.39437866 39.4648046,9.64684804 39.6983912,9.83304596 C39.9319779,10.0192439 40.2191915,10.1123428 40.5600322,10.1123428 Z" id="Shape"></path>
                <path d="M45.1674251,11 L45.1674251,4.99511719 L46.3490657,4.99511719 L46.3490657,11 L45.1674251,11 Z M45.7636165,4.07666016 C45.559515,4.07666016 45.3849544,4.0086263 45.2399349,3.87255859 C45.0949154,3.73649089 45.0224056,3.57177734 45.0224056,3.37841797 C45.0224056,3.18147786 45.0949154,3.01497396 45.2399349,2.87890625 C45.3849544,2.74283854 45.559515,2.67480469 45.7636165,2.67480469 C45.9677181,2.67480469 46.1431738,2.74283854 46.2899837,2.87890625 C46.4367936,3.01497396 46.5101986,3.18147786 46.5101986,3.37841797 C46.5101986,3.57177734 46.4367936,3.73649089 46.2899837,3.87255859 C46.1431738,4.0086263 45.9677181,4.07666016 45.7636165,4.07666016 Z" id="Shape"></path>
                <polygon id="Path" points="52.6501349 2.99707031 52.6501349 11 51.4687461 11 51.4687461 2.99707031"></polygon>
                <path d="M56.2192972,11.1319275 C55.8391244,11.1319275 55.4954584,11.0617676 55.1882989,10.9214478 C54.8811395,10.7811279 54.6378597,10.5747185 54.4584596,10.3022194 C54.2790595,10.0297203 54.1893594,9.69619497 54.1893594,9.30164337 C54.1893594,8.96046702 54.2551413,8.68084844 54.3867051,8.46278763 C54.518269,8.24472682 54.6953192,8.07167689 54.917856,7.94363785 C55.1403927,7.81559881 55.3887219,7.71936671 55.6628435,7.65494156 C55.9369651,7.59051641 56.2165557,7.54168701 56.5016153,7.50845337 C56.8558277,7.46576436 57.1436288,7.43092219 57.3650186,7.40392685 C57.5864084,7.37693151 57.7501008,7.33220037 57.856096,7.26973343 C57.9620912,7.20726649 58.0150888,7.10550944 58.0150888,6.96446228 L58.0150888,6.93416595 C58.0150888,6.70997874 57.9719242,6.52022807 57.8855951,6.36491394 C57.7992659,6.20959981 57.6707373,6.09038671 57.5000093,6.00727463 C57.3292812,5.92416255 57.1168293,5.88260651 56.8626535,5.88260651 C56.6032744,5.88260651 56.3799124,5.92286174 56.1925676,6.00337219 C56.0052227,6.08388265 55.8528319,6.18628311 55.7353952,6.31057358 C55.6179585,6.43486404 55.5305383,6.56521098 55.4731347,6.70161438 L54.3612344,6.41577148 C54.4978057,6.05568441 54.6932491,5.76641464 54.9475648,5.54796219 C55.2018805,5.32950974 55.4935141,5.17022324 55.8224656,5.07010269 C56.1514172,4.96998215 56.4927474,4.91992188 56.8464563,4.91992188 C57.087596,4.91992188 57.3442336,4.94876353 57.616369,5.00644684 C57.8885044,5.06413015 58.1442748,5.16780345 58.3836801,5.31746674 C58.6230854,5.46713003 58.818417,5.67864482 58.9696748,5.95201111 C59.1209326,6.2253774 59.1965616,6.5791982 59.1965616,7.01347351 L59.1965616,11 L58.0534418,11 L58.0534418,10.177803 L57.9928491,10.177803 C57.9151361,10.3328934 57.7993219,10.4837735 57.6454065,10.6304436 C57.4914911,10.7771136 57.2968309,10.8973618 57.0614259,10.991188 C56.8260209,11.0850143 56.5453114,11.1319275 56.2192972,11.1319275 Z M56.4815576,10.1860275 C56.8048303,10.1860275 57.0808122,10.1226514 57.3095033,9.9958992 C57.5381944,9.86914698 57.7136082,9.70257314 57.8357446,9.49617767 C57.957881,9.28978221 58.0189493,9.07032267 58.0189493,8.83779907 L58.0189493,8.06620789 C57.9763722,8.1082255 57.8949525,8.14659246 57.7746904,8.18130875 C57.6544282,8.21602503 57.5179549,8.24672699 57.3652704,8.27341461 C57.2125858,8.30010223 57.0639856,8.32281748 56.9194696,8.34156036 C56.7749536,8.36030324 56.6567895,8.3753535 56.5649774,8.38671112 C56.3438674,8.41474152 56.1408568,8.4627037 55.9559457,8.53059769 C55.7710346,8.59849167 55.6241548,8.69505946 55.5153062,8.82030106 C55.4064577,8.94554265 55.3520334,9.11147308 55.3520334,9.31809235 C55.3520334,9.50837453 55.4009047,9.66770299 55.4986474,9.79607773 C55.5963902,9.92445246 55.7299821,10.0215378 55.8994233,10.0873337 C56.0688646,10.1531296 56.2629093,10.1860275 56.4815576,10.1860275 Z" id="Shape"></path>
                <path d="M61.0855163,11 L61.0855163,4.99511719 L62.2288878,4.99511719 L62.2288878,5.95956421 L62.293341,5.95956421 C62.4037281,5.63327026 62.5970595,5.3769544 62.8733352,5.19061661 C63.1496108,5.00427882 63.4632323,4.91110992 63.8141997,4.91110992 C63.8897307,4.91110992 63.9762417,4.91386541 64.0737327,4.91937637 C64.1712236,4.92488734 64.2511886,4.93169912 64.3136275,4.93981171 L64.3136275,6.06757355 C64.2708266,6.05464935 64.1884279,6.04085795 64.0664313,6.02619934 C63.9444348,6.01154073 63.8205779,6.00421143 63.6948607,6.00421143 C63.421942,6.00421143 63.1771097,6.0619367 62.9603637,6.17738724 C62.7436176,6.29283778 62.5738547,6.45176061 62.4510749,6.65415573 C62.328295,6.85655085 62.2669051,7.08992767 62.2669051,7.35428619 L62.2669051,11 L61.0855163,11 Z" id="Path"></path>
                <path d="M67.5319597,11 L65.2665331,4.99511719 L66.5421678,4.99511719 L67.7306063,8.40827942 C67.8628135,8.78352865 67.9757184,9.15981293 68.0693209,9.53713226 C68.1629233,9.9144516 68.2603304,10.2885259 68.3615419,10.6593552 L68.0099871,10.6593552 C68.1105832,10.2885259 68.2075286,9.91460546 68.3008234,9.53759384 C68.3941182,9.16058222 68.5050788,8.78414408 68.6337053,8.40827942 L69.8181993,4.99511719 L71.0880434,4.99511719 L68.8206865,11 L67.5319597,11 Z" id="Path"></path>
                <path d="M74.811143,11.1250458 C74.2200989,11.1250458 73.7103485,10.9972725 73.2818919,10.7417259 C72.8534353,10.4861794 72.5237424,10.127449 72.2928134,9.66553497 C72.0618843,9.20362091 71.9464198,8.66181183 71.9464198,8.04010773 C71.9464198,7.42355092 72.0598422,6.88122431 72.286687,6.4131279 C72.5135318,5.94503148 72.8345106,5.57913971 73.2496234,5.31545258 C73.6647362,5.05176544 74.1511978,4.91992188 74.7090083,4.91992188 C75.0521988,4.91992188 75.3838079,4.97595469 75.7038356,5.08802032 C76.0238632,5.20008596 76.310909,5.376297 76.5649729,5.61665344 C76.8190369,5.85700989 77.020299,6.16843541 77.1687594,6.55093002 C77.3172198,6.93342463 77.39145,7.39540863 77.39145,7.93688202 L77.39145,8.35616302 L72.6036235,8.35616302 L72.6036235,7.47396088 L76.7824183,7.47396088 L76.2307063,7.76509094 C76.2307063,7.39829 76.1736244,7.07437388 76.0594607,6.79334259 C75.945297,6.5123113 75.7758138,6.29269791 75.5510112,6.13450241 C75.3262085,5.97630692 75.0468277,5.89720917 74.7128688,5.89720917 C74.3789098,5.89720917 74.0936684,5.97777557 73.8571444,6.13890839 C73.6206205,6.3000412 73.4401154,6.5123113 73.3156291,6.77571869 C73.1911428,7.03912608 73.1288996,7.32633972 73.1288996,7.63735962 L73.1288996,8.23690796 C73.1288996,8.64869181 73.1996051,8.99719747 73.3410159,9.28242493 C73.4824267,9.56765238 73.6807655,9.78318151 73.9360324,9.9290123 C74.1912992,10.0748431 74.487059,10.1477585 74.8233119,10.1477585 C75.0435267,10.1477585 75.2437119,10.1161474 75.4238673,10.0529251 C75.6040227,9.98970286 75.7590851,9.89464569 75.8890544,9.7677536 C76.0190236,9.64086151 76.1186966,9.48375702 76.1880732,9.29644012 L77.2967005,9.5581131 C77.2023148,9.86918894 77.0412099,10.1423734 76.813386,10.3776665 C76.5855621,10.6129595 76.3023628,10.796346 75.9637881,10.9278259 C75.6252134,11.0593058 75.2409983,11.1250458 74.811143,11.1250458 Z" id="Path"></path>
                <path d="M84.801968,11.1250458 C84.2109239,11.1250458 83.7011736,10.9972725 83.2727169,10.7417259 C82.8442603,10.4861794 82.5145675,10.127449 82.2836384,9.66553497 C82.0527093,9.20362091 81.9372448,8.66181183 81.9372448,8.04010773 C81.9372448,7.42355092 82.0506672,6.88122431 82.277512,6.4131279 C82.5043568,5.94503148 82.8253356,5.57913971 83.2404484,5.31545258 C83.6555612,5.05176544 84.1420229,4.91992188 84.6998333,4.91992188 C85.0430238,4.91992188 85.3746329,4.97595469 85.6946606,5.08802032 C86.0146883,5.20008596 86.3017341,5.376297 86.555798,5.61665344 C86.8098619,5.85700989 87.0111241,6.16843541 87.1595845,6.55093002 C87.3080448,6.93342463 87.382275,7.39540863 87.382275,7.93688202 L87.382275,8.35616302 L82.5944485,8.35616302 L82.5944485,7.47396088 L86.7732434,7.47396088 L86.2215313,7.76509094 C86.2215313,7.39829 86.1644495,7.07437388 86.0502857,6.79334259 C85.936122,6.5123113 85.7666388,6.29269791 85.5418362,6.13450241 C85.3170335,5.97630692 85.0376527,5.89720917 84.7036938,5.89720917 C84.3697349,5.89720917 84.0844934,5.97777557 83.8479695,6.13890839 C83.6114455,6.3000412 83.4309404,6.5123113 83.3064541,6.77571869 C83.1819678,7.03912608 83.1197247,7.32633972 83.1197247,7.63735962 L83.1197247,8.23690796 C83.1197247,8.64869181 83.1904301,8.99719747 83.3318409,9.28242493 C83.4732517,9.56765238 83.6715906,9.78318151 83.9268574,9.9290123 C84.1821242,10.0748431 84.4778841,10.1477585 84.8141369,10.1477585 C85.0343518,10.1477585 85.2345369,10.1161474 85.4146923,10.0529251 C85.5948478,9.98970286 85.7499101,9.89464569 85.8798794,9.7677536 C86.0098487,9.64086151 86.1095216,9.48375702 86.1788983,9.29644012 L87.2875256,9.5581131 C87.1931398,9.86918894 87.032035,10.1423734 86.8042111,10.3776665 C86.5763872,10.6129595 86.2931879,10.796346 85.9546131,10.9278259 C85.6160384,11.0593058 85.2318234,11.1250458 84.801968,11.1250458 Z" id="Path"></path>
                <path d="M93.8847425,11.1319275 C93.5045698,11.1319275 93.1609037,11.0617676 92.8537443,10.9214478 C92.5465849,10.7811279 92.3033051,10.5747185 92.123905,10.3022194 C91.9445048,10.0297203 91.8548048,9.69619497 91.8548048,9.30164337 C91.8548048,8.96046702 91.9205867,8.68084844 92.0521505,8.46278763 C92.1837143,8.24472682 92.3607646,8.07167689 92.5833013,7.94363785 C92.8058381,7.81559881 93.0541672,7.71936671 93.3282888,7.65494156 C93.6024104,7.59051641 93.882001,7.54168701 94.1670606,7.50845337 C94.5212731,7.46576436 94.8090742,7.43092219 95.030464,7.40392685 C95.2518537,7.37693151 95.4155462,7.33220037 95.5215414,7.26973343 C95.6275366,7.20726649 95.6805341,7.10550944 95.6805341,6.96446228 L95.6805341,6.93416595 C95.6805341,6.70997874 95.6373696,6.52022807 95.5510404,6.36491394 C95.4647113,6.20959981 95.3361827,6.09038671 95.1654546,6.00727463 C94.9947266,5.92416255 94.7822747,5.88260651 94.5280988,5.88260651 C94.2687198,5.88260651 94.0453578,5.92286174 93.8580129,6.00337219 C93.6706681,6.08388265 93.5182773,6.18628311 93.4008405,6.31057358 C93.2834038,6.43486404 93.1959837,6.56521098 93.1385801,6.70161438 L92.0266798,6.41577148 C92.163251,6.05568441 92.3586945,5.76641464 92.6130102,5.54796219 C92.8673259,5.32950974 93.1589595,5.17022324 93.487911,5.07010269 C93.8168625,4.96998215 94.1581927,4.91992188 94.5119016,4.91992188 C94.7530414,4.91992188 95.0096789,4.94876353 95.2818144,5.00644684 C95.5539498,5.06413015 95.8097201,5.16780345 96.0491255,5.31746674 C96.2885308,5.46713003 96.4838623,5.67864482 96.6351202,5.95201111 C96.786378,6.2253774 96.8620069,6.5791982 96.8620069,7.01347351 L96.8620069,11 L95.7188871,11 L95.7188871,10.177803 L95.6582945,10.177803 C95.5805815,10.3328934 95.4647672,10.4837735 95.3108518,10.6304436 C95.1569364,10.7771136 94.9622762,10.8973618 94.7268713,10.991188 C94.4914663,11.0850143 94.2107567,11.1319275 93.8847425,11.1319275 Z M94.147003,10.1860275 C94.4702757,10.1860275 94.7462576,10.1226514 94.9749487,9.9958992 C95.2036398,9.86914698 95.3790535,9.70257314 95.50119,9.49617767 C95.6233264,9.28978221 95.6843946,9.07032267 95.6843946,8.83779907 L95.6843946,8.06620789 C95.6418175,8.1082255 95.5603979,8.14659246 95.4401357,8.18130875 C95.3198736,8.21602503 95.1834003,8.24672699 95.0307157,8.27341461 C94.8780312,8.30010223 94.7294309,8.32281748 94.5849149,8.34156036 C94.440399,8.36030324 94.3222349,8.3753535 94.2304228,8.38671112 C94.0093127,8.41474152 93.8063022,8.4627037 93.6213911,8.53059769 C93.43648,8.59849167 93.2896002,8.69505946 93.1807516,8.82030106 C93.071903,8.94554265 93.0174787,9.11147308 93.0174787,9.31809235 C93.0174787,9.50837453 93.0663501,9.66770299 93.1640928,9.79607773 C93.2618355,9.92445246 93.3954275,10.0215378 93.5648687,10.0873337 C93.7343099,10.1531296 93.9283547,10.1860275 94.147003,10.1860275 Z" id="Shape"></path>
                <path d="M100.983071,11.1192551 C100.498218,11.1192551 100.06632,10.9948807 99.6873782,10.7461319 C99.3084364,10.4973831 99.0115436,10.1412265 98.7966998,9.6776619 C98.5818561,9.21409734 98.4744342,8.65879059 98.4744342,8.01174164 C98.4744342,7.36116791 98.5835625,6.80500793 98.8018192,6.34326172 C99.0200758,5.8815155 99.3185212,5.52885564 99.6971553,5.28528214 C100.075789,5.04170863 100.504596,4.91992187 100.983574,4.91992187 C101.357145,4.91992187 101.658024,4.98195521 101.886212,5.10602188 C102.114399,5.23008855 102.292848,5.37439473 102.421559,5.53894043 C102.550269,5.70348612 102.647802,5.84816996 102.714157,5.97299194 L102.781632,5.97299194 L102.781632,2.99707031 L103.963021,2.99707031 L103.963021,11 L102.811928,11 L102.811928,10.0601425 L102.714157,10.0601425 C102.646515,10.1879298 102.546716,10.334432 102.414761,10.499649 C102.282805,10.6648661 102.102468,10.8094381 101.873749,10.9333649 C101.64503,11.0572917 101.348137,11.1192551 100.983071,11.1192551 Z M101.245079,10.1123428 C101.579989,10.1123428 101.863105,10.0233281 102.094426,9.84529877 C102.325746,9.66726939 102.501188,9.41977946 102.620751,9.10282898 C102.740314,8.7858785 102.800095,8.4192454 102.800095,8.00292969 C102.800095,7.58532715 102.741055,7.22156143 102.622975,6.91163254 C102.504895,6.60170364 102.330194,6.36007436 102.098873,6.18674469 C101.867553,6.01341502 101.582955,5.92675018 101.245079,5.92675018 C100.898364,5.92675018 100.60894,6.01780701 100.376808,6.19992065 C100.144677,6.3820343 99.9706195,6.62953822 99.8546375,6.9424324 C99.7386554,7.25532659 99.6806644,7.60882568 99.6806644,8.00292969 C99.6806644,8.3993276 99.7393967,8.75689697 99.8568614,9.07563782 C99.9743261,9.39437866 100.149852,9.64684804 100.383438,9.83304596 C100.617025,10.0192439 100.904239,10.1123428 101.245079,10.1123428 Z" id="Shape"></path>
                <path d="M107.898355,11.0751953 C107.490488,11.0751953 107.132667,10.9895236 106.824892,10.8181801 C106.517117,10.6468366 106.278034,10.3925489 106.107641,10.0553169 C105.937249,9.71808497 105.852053,9.30315399 105.852053,8.81052399 L105.852053,4.99511719 L107.033442,4.99511719 L107.033442,8.66323853 C107.033442,9.09549967 107.146808,9.43411636 107.373541,9.67908859 C107.600274,9.92406082 107.909909,10.0465469 108.302446,10.0465469 C108.569546,10.0465469 108.807931,9.9882342 109.017599,9.87160873 C109.227268,9.75498327 109.392862,9.58467484 109.514383,9.36068344 C109.635904,9.13669205 109.696665,8.86750793 109.696665,8.5531311 L109.696665,4.99511719 L110.882502,4.99511719 L110.882502,11 L109.751635,11 L109.743914,9.52991486 L109.861238,9.52991486 C109.684048,10.072787 109.427704,10.4660517 109.092207,10.7097092 C108.756709,10.9533666 108.358759,11.0751953 107.898355,11.0751953 Z" id="Path"></path>
                <polygon id="Path" points="113.95288 2.99707031 113.95288 11 112.771491 11 112.771491 2.99707031"></polygon>
                <path d="M118.573182,4.99511719 L118.573182,5.95570374 L115.31595,5.95570374 L115.31595,4.99511719 L118.573182,4.99511719 Z M116.193116,3.56640625 L117.374589,3.56640625 L117.374589,9.37566376 C117.374589,9.61842601 117.425167,9.7961057 117.526323,9.90870285 C117.627478,10.0213 117.795185,10.0775986 118.029443,10.0775986 C118.090931,10.0775986 118.171707,10.0702693 118.271772,10.0556107 C118.371836,10.040952 118.457704,10.0264613 118.529374,10.0121384 L118.738763,10.9590454 C118.612039,11.0006714 118.476908,11.0309258 118.333371,11.0498085 C118.189834,11.0686913 118.049277,11.0781326 117.911699,11.0781326 C117.364798,11.0781326 116.941643,10.9381065 116.642232,10.6580544 C116.342822,10.3780022 116.193116,9.98301697 116.193116,9.47309875 L116.193116,3.56640625 Z" id="Shape"></path>
                <path d="M120.045163,11 L120.045163,4.99511719 L121.226803,4.99511719 L121.226803,11 L120.045163,11 Z M120.641354,4.07666016 C120.437252,4.07666016 120.262692,4.0086263 120.117672,3.87255859 C119.972653,3.73649089 119.900143,3.57177734 119.900143,3.37841797 C119.900143,3.18147786 119.972653,3.01497396 120.117672,2.87890625 C120.262692,2.74283854 120.437252,2.67480469 120.641354,2.67480469 C120.845456,2.67480469 121.020911,2.74283854 121.167721,2.87890625 C121.314531,3.01497396 121.387936,3.18147786 121.387936,3.37841797 C121.387936,3.57177734 121.314531,3.73649089 121.167721,3.87255859 C121.020911,4.0086263 120.845456,4.07666016 120.641354,4.07666016 Z" id="Shape"></path>
            </g>
            <circle id="Oval-6-Copy" cx="5" cy="7" r="5"></circle>
        </g>
    </g>
</svg>