<?xml version="1.0" encoding="UTF-8"?>
<svg width="259px" height="15px" viewBox="0 0 259 15" version="1.1" xmlns="http://www.w3.org/2000/svg" xmlns:xlink="http://www.w3.org/1999/xlink">
    <title>legend-peronospora</title>
    <defs>
        <path d="M0,0 L258,0 L258,14 L0,14 L0,0 Z" id="path-1"></path>
    </defs>
    <g id="legend-peronospora" stroke="none" fill="none" transform="translate(0.5, 0.5)" xlink:href="#path-1" fill-rule="evenodd">
        <use fill="#FFFFFF" xlink:href="#path-1"></use>
        <g id="Group" stroke-width="1" transform="translate(2, 0)">
            <g id="0–5%-6–15%-16–30%-&gt;3" transform="translate(15, 0)" fill="#000000" fill-rule="nonzero">
                <path d="M3.54886627,11.1074219 C2.9281133,11.1074219 2.39859899,10.9459674 1.96032333,10.6230583 C1.52204768,10.3001493 1.1865921,9.8334376 0.953956604,9.22292328 C0.721321106,8.61240896 0.605003357,7.87256877 0.605003357,7.00340271 C0.605003357,6.13787333 0.722048442,5.3988444 0.956138611,4.78631592 C1.19022878,4.17378743 1.52636973,3.70454407 1.96456146,3.37858582 C2.40275319,3.05262756 2.9308548,2.88964844 3.54886627,2.88964844 C4.1668218,2.88964844 4.69584656,3.05273946 5.13594055,3.37892151 C5.57603455,3.70510356 5.91223145,4.17434692 6.14453125,4.78665161 C6.37683105,5.3989563 6.49298096,6.13806915 6.49298096,7.00399017 C6.49298096,7.86996714 6.37755839,8.60891215 6.14671326,9.2208252 C5.91586812,9.83273824 5.58130773,10.3001493 5.14303207,10.6230583 C4.70475642,10.9459674 4.17336782,11.1074219 3.54886627,11.1074219 Z M3.54911804,10.0592194 C3.91871643,10.0592194 4.2321701,9.93887329 4.48947906,9.69818115 C4.74678802,9.45748901 4.94302877,9.10972468 5.07820129,8.65488815 C5.21337382,8.20005163 5.28096008,7.64969635 5.28096008,7.00382233 C5.28096008,6.35447947 5.21337382,5.80076726 5.07820129,5.3426857 C4.94302877,4.88460414 4.74671809,4.53489558 4.48926926,4.29356003 C4.23182042,4.05222448 3.91849264,3.9315567 3.54928589,3.9315567 C3.18007914,3.9315567 2.86665344,4.05295181 2.60900879,4.29574203 C2.35136414,4.53853226 2.15495555,4.88824081 2.01978302,5.34486771 C1.88461049,5.8014946 1.81702423,6.35447947 1.81702423,7.00382233 C1.81702423,7.64969635 1.88445663,8.20005163 2.01932144,8.65488815 C2.15418625,9.10972468 2.35046895,9.45748901 2.60816956,9.69818115 C2.86587016,9.93887329 3.17951965,10.0592194 3.54911804,10.0592194 Z" id="Shape"></path>
                <polygon id="Path" points="12.8980014 6.49902344 12.8980014 7.51953125 7.39800136 7.51953125 7.39800136 6.49902344"></polygon>
                <path d="M16.4571643,11.1074219 C15.9616809,11.1074219 15.5183978,11.0123227 15.127315,10.8221245 C14.7362323,10.6319262 14.4251704,10.3709386 14.1941294,10.0391617 C13.9630885,9.70738475 13.8395953,9.32933807 13.8236499,8.90502167 L15.0149417,8.90502167 C15.0325656,9.13172658 15.1073273,9.33366013 15.2392268,9.5108223 C15.3711263,9.68798447 15.543337,9.82648595 15.7558589,9.92632675 C15.9683807,10.0261676 16.2021492,10.076088 16.4571643,10.076088 C16.7614143,10.076088 17.0320252,10.0058861 17.2689967,9.86548233 C17.5059682,9.72507858 17.6917186,9.53076808 17.8262477,9.28255081 C17.9607768,9.03433355 18.0280413,8.75127411 18.0280413,8.4333725 C18.0280413,8.10898081 17.9578395,7.81957118 17.8174357,7.56514359 C17.677032,7.31071599 17.485407,7.11110433 17.2425608,6.96630859 C16.9997147,6.82151286 16.7202919,6.74911499 16.4042926,6.74911499 C16.1597959,6.74911499 15.9160825,6.79139837 15.6731524,6.87596512 C15.4302223,6.96053187 15.235772,7.07014974 15.0898013,7.20481873 L13.9617038,7.04024506 L14.4053225,2.99707031 L18.8269915,2.99707031 L18.8269915,4.04586029 L15.4309497,4.04586029 L15.1792636,6.27880859 L15.2222323,6.27880859 C15.3798963,6.12338257 15.5892011,5.99552536 15.8501467,5.89523697 C16.1110924,5.79494858 16.3910327,5.74480438 16.6899676,5.74480438 C17.0532438,5.74480438 17.389105,5.81040446 17.6975512,5.94160461 C18.0059975,6.07280477 18.2743284,6.25828934 18.5025439,6.49805832 C18.7307594,6.7378273 18.9081034,7.01982371 19.0345759,7.34404755 C19.1610484,7.66827138 19.2242846,8.02309926 19.2242846,8.40853119 C19.2242846,8.92896779 19.1057429,9.39228058 18.8686595,9.79846954 C18.631576,10.2046585 18.3052541,10.5243645 17.8896937,10.7575874 C17.4741333,10.9908104 16.9966235,11.1074219 16.4571643,11.1074219 Z" id="Path"></path>
                <path d="M22.9160992,6.63036346 C22.5636771,6.63036346 22.266015,6.55397924 22.0231129,6.40121078 C21.7802108,6.24844233 21.5965166,6.04497019 21.4720303,5.79079437 C21.347544,5.53661855 21.2853008,5.25886027 21.2853008,4.95751953 L21.2853008,4.53857422 C21.2853008,4.23594666 21.348593,3.95828629 21.4751774,3.70559311 C21.6017618,3.45289993 21.7866729,3.25015513 22.0299107,3.0973587 C22.2731485,2.94456228 22.5685447,2.86816406 22.9160992,2.86816406 C23.2727174,2.86816406 23.5710229,2.94456228 23.8110157,3.0973587 C24.0510085,3.25015513 24.2325067,3.45289993 24.3555103,3.70559311 C24.478514,3.95828629 24.5400158,4.23594666 24.5400158,4.53857422 L24.5400158,4.95751953 C24.5400158,5.26014709 24.4776188,5.53838094 24.3528248,5.79222107 C24.2280308,6.0460612 24.0454835,6.24921163 23.805183,6.40167236 C23.5648826,6.5541331 23.2685213,6.63036346 22.9160992,6.63036346 Z M22.9160992,5.83300781 C23.17794,5.83300781 23.3604873,5.7433637 23.4637409,5.56407547 C23.5669946,5.38478724 23.6186215,5.18260193 23.6186215,4.95751953 L23.6186215,4.53857422 C23.6186215,4.31640116 23.568785,4.11429977 23.469112,3.93227005 C23.3694391,3.75024033 23.1851015,3.65922546 22.9160992,3.65922546 C22.6585105,3.65922546 22.4758793,3.75072988 22.3682057,3.93373871 C22.260532,4.11674754 22.2066952,4.31835937 22.2066952,4.53857422 L22.2066952,4.95751953 C22.2066952,5.18260193 22.2593851,5.38478724 22.3647648,5.56407547 C22.4701445,5.7433637 22.6539227,5.83300781 22.9160992,5.83300781 Z M28.2733456,11.1508942 C27.9209235,11.1508942 27.6232474,11.0745099 27.3803173,10.9217415 C27.1373872,10.768973 26.953693,10.5655009 26.8292347,10.3113251 C26.7047764,10.0571493 26.6425472,9.77939097 26.6425472,9.47805023 L26.6425472,9.05910492 C26.6425472,8.75647736 26.7058394,8.47881699 26.8324238,8.22612381 C26.9590082,7.97343063 27.1439193,7.77068583 27.3871571,7.6178894 C27.6303949,7.46509298 27.9257911,7.38869476 28.2733456,7.38869476 C28.6299638,7.38869476 28.9289967,7.46509298 29.1704441,7.6178894 C29.4118916,7.77068583 29.5933898,7.97343063 29.7149388,8.22612381 C29.8364877,8.47881699 29.8972622,8.75647736 29.8972622,9.05910492 L29.8972622,9.47805023 C29.8972622,9.7806778 29.8348652,10.0589116 29.7100712,10.3127518 C29.5852772,10.5665919 29.4027299,10.7697423 29.1624294,10.9222031 C28.9221289,11.0746638 28.6257677,11.1508942 28.2733456,11.1508942 Z M28.2733456,10.3535385 C28.5351864,10.3535385 28.7177337,10.2638944 28.8209873,10.0846062 C28.924241,9.90531794 28.9758679,9.70313263 28.9758679,9.47805023 L28.9758679,9.05910492 C28.9758679,8.83693186 28.9260314,8.63483047 28.8263584,8.45280075 C28.7266855,8.27077103 28.5423479,8.17975616 28.2733456,8.17975616 C28.0157569,8.17975616 27.8331257,8.27126058 27.7254521,8.45426941 C27.6177784,8.63727824 27.5639416,8.83889008 27.5639416,9.05910492 L27.5639416,9.47805023 C27.5639416,9.70313263 27.6166315,9.90531794 27.7220112,10.0846062 C27.8273909,10.2638944 28.0111691,10.3535385 28.2733456,10.3535385 Z M22.326286,11 L27.826286,2.99707031 L28.8025662,2.99707031 L23.3025662,11 L22.326286,11 Z" id="Shape"></path>
                <path d="M67.2040207,11.1074219 C66.8471786,11.1074219 66.4945188,11.0442975 66.1460411,10.9180489 C65.7975634,10.7918002 65.4821795,10.5825373 65.1998894,10.2902603 C64.9175992,9.9979833 64.692321,9.60480245 64.5240547,9.11071777 C64.3557884,8.6166331 64.2716553,8.00172679 64.2716553,7.26599884 C64.2716553,6.57094574 64.3415354,5.95296224 64.4812958,5.41204834 C64.6210561,4.87113444 64.8234512,4.412913 65.0884811,4.03738403 C65.353511,3.66185506 65.6728254,3.37668355 66.0464241,3.18186951 C66.4200228,2.98705546 66.8402969,2.88964844 67.3072464,2.88964844 C67.78063,2.88964844 68.2029462,2.98351669 68.5741951,3.1712532 C68.945444,3.35898972 69.247568,3.61751556 69.4805672,3.94683075 C69.7135663,4.27614594 69.8603622,4.65382894 69.9209549,5.07987976 L68.7169907,5.07987976 C68.6351934,4.75380961 68.4752495,4.48599625 68.237159,4.27643967 C67.9990685,4.06688309 67.6890976,3.9621048 67.3072464,3.9621048 C66.9177862,3.9621048 66.5843727,4.07659022 66.3070061,4.30556107 C66.0296394,4.53453191 65.8179708,4.8637352 65.6720001,5.29317093 C65.5260295,5.72260666 65.4530441,6.23877716 65.4530441,6.84168243 L65.5136368,6.84168243 C65.6498164,6.61581675 65.8184883,6.42175802 66.0196526,6.25950623 C66.2208168,6.09725444 66.4473399,5.9732577 66.6992218,5.88751602 C66.9511037,5.80177434 67.2171687,5.7589035 67.4974167,5.7589035 C67.9608973,5.7589035 68.3809616,5.87105306 68.7576096,6.09535217 C69.1342575,6.31965129 69.4340177,6.62981796 69.6568901,7.0258522 C69.8797625,7.42188644 69.9911987,7.87545013 69.9911987,8.38654327 C69.9911987,8.89780426 69.8756922,9.35873922 69.6446793,9.76934814 C69.4136663,10.1799571 69.0890788,10.5056216 68.6709167,10.7463417 C68.2527547,10.9870618 67.7637894,11.1074219 67.2040207,11.1074219 Z M67.2001602,10.076088 C67.5037389,10.076088 67.776224,10.0011584 68.0176155,9.85129929 C68.259007,9.70144018 68.4500585,9.50020599 68.59077,9.24759674 C68.7314814,8.99498749 68.8018372,8.71247355 68.8018372,8.40005493 C68.8018372,8.09356689 68.7336774,7.81547292 68.5973579,7.56577301 C68.4610385,7.3160731 68.2736656,7.11776225 68.0352394,6.97084045 C67.7968132,6.82391866 67.5258108,6.75045776 67.2222321,6.75045776 C66.9941844,6.75045776 66.782194,6.7945315 66.586261,6.88267899 C66.390328,6.97082647 66.2187467,7.09234746 66.0715172,7.24724197 C65.9242877,7.40213648 65.8097043,7.57934062 65.7277672,7.77885437 C65.64583,7.97836812 65.6048615,8.18837229 65.6048615,8.40886688 C65.6048615,8.70657094 65.6737485,8.98174159 65.8115227,9.23437881 C65.9492968,9.48701604 66.1390335,9.69046021 66.3807327,9.8447113 C66.6224319,9.9989624 66.8955744,10.076088 67.2001602,10.076088 Z" id="Shape"></path>
                <polygon id="Path" points="76.3962178 6.49902344 76.3962178 7.51953125 70.8962178 7.51953125 70.8962178 6.49902344"></polygon>
                <polygon id="Path" points="80.3746617 2.99707031 80.3746617 11 79.1604589 11 79.1604589 4.10863495 79.1067479 4.10863495 77.2060521 5.49731445 77.2060521 4.26624298 78.9559377 2.99707031"></polygon>
                <path d="M84.8194103,11.1074219 C84.3239269,11.1074219 83.8806438,11.0123227 83.489561,10.8221245 C83.0984783,10.6319262 82.7874164,10.3709386 82.5563754,10.0391617 C82.3253345,9.70738475 82.2018413,9.32933807 82.1858959,8.90502167 L83.3771877,8.90502167 C83.3948116,9.13172658 83.4695733,9.33366013 83.6014728,9.5108223 C83.7333723,9.68798447 83.905583,9.82648595 84.1181049,9.92632675 C84.3306268,10.0261676 84.5643952,10.076088 84.8194103,10.076088 C85.1236604,10.076088 85.3942712,10.0058861 85.6312427,9.86548233 C85.8682142,9.72507858 86.0539646,9.53076808 86.1884937,9.28255081 C86.3230228,9.03433355 86.3902873,8.75127411 86.3902873,8.4333725 C86.3902873,8.10898081 86.3200855,7.81957118 86.1796817,7.56514359 C86.039278,7.31071599 85.847653,7.11110433 85.6048068,6.96630859 C85.3619607,6.82151286 85.0825379,6.74911499 84.7665386,6.74911499 C84.5220419,6.74911499 84.2783285,6.79139837 84.0353984,6.87596512 C83.7924683,6.96053187 83.598018,7.07014974 83.4520473,7.20481873 L82.3239498,7.04024506 L82.7675685,2.99707031 L87.1892375,2.99707031 L87.1892375,4.04586029 L83.7931957,4.04586029 L83.5415096,6.27880859 L83.5844783,6.27880859 C83.7421423,6.12338257 83.9514471,5.99552536 84.2123928,5.89523697 C84.4733384,5.79494858 84.7532787,5.74480438 85.0522136,5.74480438 C85.4154898,5.74480438 85.751351,5.81040446 86.0597972,5.94160461 C86.3682435,6.07280477 86.6365744,6.25828934 86.8647899,6.49805832 C87.0930054,6.7378273 87.2703494,7.01982371 87.3968219,7.34404755 C87.5232944,7.66827138 87.5865306,8.02309926 87.5865306,8.40853119 C87.5865306,8.92896779 87.4679889,9.39228058 87.2309055,9.79846954 C86.993822,10.2046585 86.6675001,10.5243645 86.2519397,10.7575874 C85.8363793,10.9908104 85.3588695,11.1074219 84.8194103,11.1074219 Z" id="Path"></path>
                <path d="M91.2783452,6.63036346 C90.9259231,6.63036346 90.628261,6.55397924 90.3853589,6.40121078 C90.1424568,6.24844233 89.9587626,6.04497019 89.8342763,5.79079437 C89.70979,5.53661855 89.6475469,5.25886027 89.6475469,4.95751953 L89.6475469,4.53857422 C89.6475469,4.23594666 89.710839,3.95828629 89.8374234,3.70559311 C89.9640078,3.45289993 90.1489189,3.25015513 90.3921567,3.0973587 C90.6353945,2.94456228 90.9307907,2.86816406 91.2783452,2.86816406 C91.6349634,2.86816406 91.9332689,2.94456228 92.1732617,3.0973587 C92.4132545,3.25015513 92.5947527,3.45289993 92.7177564,3.70559311 C92.84076,3.95828629 92.9022618,4.23594666 92.9022618,4.53857422 L92.9022618,4.95751953 C92.9022618,5.26014709 92.8398648,5.53838094 92.7150708,5.79222107 C92.5902768,6.0460612 92.4077296,6.24921163 92.1674291,6.40167236 C91.9271286,6.5541331 91.6307673,6.63036346 91.2783452,6.63036346 Z M91.2783452,5.83300781 C91.540186,5.83300781 91.7227333,5.7433637 91.8259869,5.56407547 C91.9292406,5.38478724 91.9808675,5.18260193 91.9808675,4.95751953 L91.9808675,4.53857422 C91.9808675,4.31640116 91.931031,4.11429977 91.831358,3.93227005 C91.7316851,3.75024033 91.5473475,3.65922546 91.2783452,3.65922546 C91.0207565,3.65922546 90.8381253,3.75072988 90.7304517,3.93373871 C90.622778,4.11674754 90.5689412,4.31835937 90.5689412,4.53857422 L90.5689412,4.95751953 C90.5689412,5.18260193 90.6216311,5.38478724 90.7270108,5.56407547 C90.8323906,5.7433637 91.0161687,5.83300781 91.2783452,5.83300781 Z M96.6355916,11.1508942 C96.2831695,11.1508942 95.9854934,11.0745099 95.7425633,10.9217415 C95.4996332,10.768973 95.315939,10.5655009 95.1914807,10.3113251 C95.0670224,10.0571493 95.0047933,9.77939097 95.0047933,9.47805023 L95.0047933,9.05910492 C95.0047933,8.75647736 95.0680854,8.47881699 95.1946698,8.22612381 C95.3212542,7.97343063 95.5061653,7.77068583 95.7494031,7.6178894 C95.9926409,7.46509298 96.2880371,7.38869476 96.6355916,7.38869476 C96.9922098,7.38869476 97.2912427,7.46509298 97.5326901,7.6178894 C97.7741376,7.77068583 97.9556358,7.97343063 98.0771848,8.22612381 C98.1987337,8.47881699 98.2595082,8.75647736 98.2595082,9.05910492 L98.2595082,9.47805023 C98.2595082,9.7806778 98.1971112,10.0589116 98.0723172,10.3127518 C97.9475232,10.5665919 97.7649759,10.7697423 97.5246755,10.9222031 C97.284375,11.0746638 96.9880137,11.1508942 96.6355916,11.1508942 Z M96.6355916,10.3535385 C96.8974324,10.3535385 97.0799797,10.2638944 97.1832333,10.0846062 C97.286487,9.90531794 97.3381139,9.70313263 97.3381139,9.47805023 L97.3381139,9.05910492 C97.3381139,8.83693186 97.2882774,8.63483047 97.1886044,8.45280075 C97.0889315,8.27077103 96.9045939,8.17975616 96.6355916,8.17975616 C96.3780029,8.17975616 96.1953717,8.27126058 96.0876981,8.45426941 C95.9800244,8.63727824 95.9261876,8.83889008 95.9261876,9.05910492 L95.9261876,9.47805023 C95.9261876,9.70313263 95.9788775,9.90531794 96.0842572,10.0846062 C96.1896369,10.2638944 96.3734151,10.3535385 96.6355916,10.3535385 Z M90.688532,11 L96.188532,2.99707031 L97.1648122,2.99707031 L91.6648122,11 L90.688532,11 Z" id="Shape"></path>
                <polygon id="Path" points="135.707342 2.99707031 135.707342 11 134.493139 11 134.493139 4.10863495 134.439428 4.10863495 132.538732 5.49731445 132.538732 4.26624298 134.288618 2.99707031"></polygon>
                <path d="M140.430296,11.1074219 C140.073454,11.1074219 139.720794,11.0442975 139.372317,10.9180489 C139.023839,10.7918002 138.708455,10.5825373 138.426165,10.2902603 C138.143875,9.9979833 137.918597,9.60480245 137.75033,9.11071777 C137.582064,8.6166331 137.497931,8.00172679 137.497931,7.26599884 C137.497931,6.57094574 137.567811,5.95296224 137.707571,5.41204834 C137.847332,4.87113444 138.049727,4.412913 138.314757,4.03738403 C138.579787,3.66185506 138.899101,3.37668355 139.2727,3.18186951 C139.646298,2.98705546 140.066572,2.88964844 140.533522,2.88964844 C141.006906,2.88964844 141.429222,2.98351669 141.800471,3.1712532 C142.17172,3.35898972 142.473844,3.61751556 142.706843,3.94683075 C142.939842,4.27614594 143.086638,4.65382894 143.14723,5.07987976 L141.943266,5.07987976 C141.861469,4.75380961 141.701525,4.48599625 141.463435,4.27643967 C141.225344,4.06688309 140.915373,3.9621048 140.533522,3.9621048 C140.144062,3.9621048 139.810648,4.07659022 139.533282,4.30556107 C139.255915,4.53453191 139.044246,4.8637352 138.898276,5.29317093 C138.752305,5.72260666 138.67932,6.23877716 138.67932,6.84168243 L138.739912,6.84168243 C138.876092,6.61581675 139.044764,6.42175802 139.245928,6.25950623 C139.447092,6.09725444 139.673615,5.9732577 139.925497,5.88751602 C140.177379,5.80177434 140.443444,5.7589035 140.723692,5.7589035 C141.187173,5.7589035 141.607237,5.87105306 141.983885,6.09535217 C142.360533,6.31965129 142.660293,6.62981796 142.883166,7.0258522 C143.106038,7.42188644 143.217474,7.87545013 143.217474,8.38654327 C143.217474,8.89780426 143.101968,9.35873922 142.870955,9.76934814 C142.639942,10.1799571 142.315354,10.5056216 141.897192,10.7463417 C141.47903,10.9870618 140.990065,11.1074219 140.430296,11.1074219 Z M140.426436,10.076088 C140.730014,10.076088 141.0025,10.0011584 141.243891,9.85129929 C141.485283,9.70144018 141.676334,9.50020599 141.817046,9.24759674 C141.957757,8.99498749 142.028113,8.71247355 142.028113,8.40005493 C142.028113,8.09356689 141.959953,7.81547292 141.823633,7.56577301 C141.687314,7.3160731 141.499941,7.11776225 141.261515,6.97084045 C141.023089,6.82391866 140.752086,6.75045776 140.448508,6.75045776 C140.22046,6.75045776 140.00847,6.7945315 139.812537,6.88267899 C139.616604,6.97082647 139.445022,7.09234746 139.297793,7.24724197 C139.150563,7.40213648 139.03598,7.57934062 138.954043,7.77885437 C138.872106,7.97836812 138.831137,8.18837229 138.831137,8.40886688 C138.831137,8.70657094 138.900024,8.98174159 139.037798,9.23437881 C139.175572,9.48701604 139.365309,9.69046021 139.607008,9.8447113 C139.848707,9.9989624 140.12185,10.076088 140.426436,10.076088 Z" id="Shape"></path>
                <polygon id="Path" points="149.622493 6.49902344 149.622493 7.51953125 144.122493 7.51953125 144.122493 6.49902344"></polygon>
                <path d="M153.37661,11.1074219 C152.834521,11.1074219 152.353585,11.0145187 151.9338,10.8287125 C151.514016,10.6429062 151.181525,10.3848559 150.936329,10.0545616 C150.691133,9.72426732 150.561206,9.34108734 150.546547,8.90502167 L151.784668,8.90502167 C151.802292,9.14123789 151.881866,9.34574509 152.023388,9.51854324 C152.164911,9.6913414 152.352536,9.82423401 152.586262,9.91722107 C152.819989,10.0102081 153.080333,10.0567017 153.367295,10.0567017 C153.679378,10.0567017 153.955555,10.0025431 154.195828,9.89422607 C154.4361,9.78590902 154.625473,9.63385391 154.763947,9.43806076 C154.90242,9.24226761 154.971657,9.01649984 154.971657,8.76075745 C154.971657,8.49332174 154.90333,8.25819651 154.766674,8.05538177 C154.630019,7.85256704 154.432702,7.69349035 154.174721,7.5781517 C153.916741,7.46281306 153.603511,7.40514374 153.235032,7.40514374 L152.555169,7.40514374 L152.555169,6.40771484 L153.235032,6.40771484 C153.529155,6.40771484 153.788674,6.35502497 154.013588,6.24964523 C154.238503,6.14426549 154.413665,5.99677022 154.539074,5.80715942 C154.664484,5.61754862 154.727189,5.39520772 154.727189,5.14013672 C154.727189,4.89452108 154.672373,4.68032074 154.562741,4.49753571 C154.453109,4.31475067 154.297809,4.17245865 154.09684,4.07065964 C153.895872,3.96886063 153.660019,3.91796112 153.389283,3.91796112 C153.130071,3.91796112 152.88882,3.9646225 152.665528,4.05794525 C152.442236,4.15126801 152.26029,4.28392283 152.11969,4.45590973 C151.979091,4.62789663 151.904399,4.83588664 151.895615,5.07987976 L150.714478,5.07987976 C150.726227,4.64801025 150.853007,4.26758575 151.094819,3.93860626 C151.33663,3.60962677 151.659049,3.35255559 152.062077,3.16739273 C152.465105,2.98222987 152.913381,2.88964844 153.406907,2.88964844 C153.921413,2.88964844 154.367129,2.98990885 154.744057,3.19042969 C155.120985,3.39095052 155.411779,3.65638606 155.61644,3.9867363 C155.821101,4.31708654 155.923432,4.6785024 155.923432,5.07098389 C155.923432,5.52086894 155.797924,5.90094376 155.54691,6.21120834 C155.295895,6.52147293 154.96016,6.73135122 154.539704,6.8408432 L154.539704,6.90336609 C154.895986,6.9557902 155.199006,7.06859716 155.448761,7.24178696 C155.698517,7.41497676 155.888408,7.63473002 156.018433,7.90104675 C156.148458,8.16736348 156.213471,8.46783702 156.213471,8.80246735 C156.213471,9.24513499 156.091111,9.6401062 155.84639,9.98738098 C155.60167,10.3346558 155.265529,10.6081479 154.837967,10.8078575 C154.410406,11.0075671 153.923287,11.1074219 153.37661,11.1074219 Z" id="Path"></path>
                <path d="M160.667303,11.1074219 C160.04655,11.1074219 159.517035,10.9459674 159.07876,10.6230583 C158.640484,10.3001493 158.305029,9.8334376 158.072393,9.22292328 C157.839758,8.61240896 157.72344,7.87256877 157.72344,7.00340271 C157.72344,6.13787333 157.840485,5.3988444 158.074575,4.78631592 C158.308665,4.17378743 158.644806,3.70454407 159.082998,3.37858582 C159.52119,3.05262756 160.049291,2.88964844 160.667303,2.88964844 C161.285258,2.88964844 161.814283,3.05273946 162.254377,3.37892151 C162.694471,3.70510356 163.030668,4.17434692 163.262968,4.78665161 C163.495268,5.3989563 163.611417,6.13806915 163.611417,7.00399017 C163.611417,7.86996714 163.495995,8.60891215 163.26515,9.2208252 C163.034305,9.83273824 162.699744,10.3001493 162.261469,10.6230583 C161.823193,10.9459674 161.291804,11.1074219 160.667303,11.1074219 Z M160.667555,10.0592194 C161.037153,10.0592194 161.350607,9.93887329 161.607916,9.69818115 C161.865225,9.45748901 162.061465,9.10972468 162.196638,8.65488815 C162.33181,8.20005163 162.399397,7.64969635 162.399397,7.00382233 C162.399397,6.35447947 162.33181,5.80076726 162.196638,5.3426857 C162.061465,4.88460414 161.865155,4.53489558 161.607706,4.29356003 C161.350257,4.05222448 161.036929,3.9315567 160.667722,3.9315567 C160.298516,3.9315567 159.98509,4.05295181 159.727445,4.29574203 C159.469801,4.53853226 159.273392,4.88824081 159.13822,5.34486771 C159.003047,5.8014946 158.935461,6.35447947 158.935461,7.00382233 C158.935461,7.64969635 159.002893,8.20005163 159.137758,8.65488815 C159.272623,9.10972468 159.468905,9.45748901 159.726606,9.69818115 C159.984307,9.93887329 160.297956,10.0592194 160.667555,10.0592194 Z" id="Shape"></path>
                <path d="M167.30328,6.63036346 C166.950858,6.63036346 166.653196,6.55397924 166.410294,6.40121078 C166.167392,6.24844233 165.983698,6.04497019 165.859211,5.79079437 C165.734725,5.53661855 165.672482,5.25886027 165.672482,4.95751953 L165.672482,4.53857422 C165.672482,4.23594666 165.735774,3.95828629 165.862358,3.70559311 C165.988943,3.45289993 166.173854,3.25015513 166.417092,3.0973587 C166.66033,2.94456228 166.955726,2.86816406 167.30328,2.86816406 C167.659898,2.86816406 167.958204,2.94456228 168.198197,3.0973587 C168.43819,3.25015513 168.619688,3.45289993 168.742691,3.70559311 C168.865695,3.95828629 168.927197,4.23594666 168.927197,4.53857422 L168.927197,4.95751953 C168.927197,5.26014709 168.8648,5.53838094 168.740006,5.79222107 C168.615212,6.0460612 168.432665,6.24921163 168.192364,6.40167236 C167.952064,6.5541331 167.655702,6.63036346 167.30328,6.63036346 Z M167.30328,5.83300781 C167.565121,5.83300781 167.747668,5.7433637 167.850922,5.56407547 C167.954176,5.38478724 168.005802,5.18260193 168.005802,4.95751953 L168.005802,4.53857422 C168.005802,4.31640116 167.955966,4.11429977 167.856293,3.93227005 C167.75662,3.75024033 167.572282,3.65922546 167.30328,3.65922546 C167.045692,3.65922546 166.86306,3.75072988 166.755387,3.93373871 C166.647713,4.11674754 166.593876,4.31835937 166.593876,4.53857422 L166.593876,4.95751953 C166.593876,5.18260193 166.646566,5.38478724 166.751946,5.56407547 C166.857326,5.7433637 167.041104,5.83300781 167.30328,5.83300781 Z M172.660527,11.1508942 C172.308105,11.1508942 172.010428,11.0745099 171.767498,10.9217415 C171.524568,10.768973 171.340874,10.5655009 171.216416,10.3113251 C171.091957,10.0571493 171.029728,9.77939097 171.029728,9.47805023 L171.029728,9.05910492 C171.029728,8.75647736 171.09302,8.47881699 171.219605,8.22612381 C171.346189,7.97343063 171.5311,7.77068583 171.774338,7.6178894 C172.017576,7.46509298 172.312972,7.38869476 172.660527,7.38869476 C173.017145,7.38869476 173.316178,7.46509298 173.557625,7.6178894 C173.799073,7.77068583 173.980571,7.97343063 174.10212,8.22612381 C174.223669,8.47881699 174.284443,8.75647736 174.284443,9.05910492 L174.284443,9.47805023 C174.284443,9.7806778 174.222046,10.0589116 174.097252,10.3127518 C173.972458,10.5665919 173.789911,10.7697423 173.54961,10.9222031 C173.30931,11.0746638 173.012949,11.1508942 172.660527,11.1508942 Z M172.660527,10.3535385 C172.922367,10.3535385 173.104915,10.2638944 173.208168,10.0846062 C173.311422,9.90531794 173.363049,9.70313263 173.363049,9.47805023 L173.363049,9.05910492 C173.363049,8.83693186 173.313212,8.63483047 173.213539,8.45280075 C173.113867,8.27077103 172.929529,8.17975616 172.660527,8.17975616 C172.402938,8.17975616 172.220307,8.27126058 172.112633,8.45426941 C172.004959,8.63727824 171.951123,8.83889008 171.951123,9.05910492 L171.951123,9.47805023 C171.951123,9.70313263 172.003812,9.90531794 172.109192,10.0846062 C172.214572,10.2638944 172.39835,10.3535385 172.660527,10.3535385 Z M166.713467,11 L172.213467,2.99707031 L173.189747,2.99707031 L167.689747,11 L166.713467,11 Z" id="Shape"></path>
                <polygon id="Path" points="214.47229 7.43896484 209.2677 9.95263672 209.2677 8.74414062 213.102661 7.01464844 213.059692 7.07373047 213.059692 6.91259766 213.102661 6.98242188 209.2677 5.24755859 209.2677 4.02832031 214.47229 6.54736328"></polygon>
                <path d="M219.148621,11.1074219 C218.606532,11.1074219 218.125596,11.0145187 217.705811,10.8287125 C217.286026,10.6429062 216.953536,10.3848559 216.70834,10.0545616 C216.463144,9.72426732 216.333217,9.34108734 216.318558,8.90502167 L217.556679,8.90502167 C217.574303,9.14123789 217.653876,9.34574509 217.795399,9.51854324 C217.936922,9.6913414 218.124546,9.82423401 218.358273,9.91722107 C218.591999,10.0102081 218.852344,10.0567017 219.139306,10.0567017 C219.451388,10.0567017 219.727566,10.0025431 219.967839,9.89422607 C220.208111,9.78590902 220.397484,9.63385391 220.535958,9.43806076 C220.674431,9.24226761 220.743668,9.01649984 220.743668,8.76075745 C220.743668,8.49332174 220.67534,8.25819651 220.538685,8.05538177 C220.40203,7.85256704 220.204712,7.69349035 219.946732,7.5781517 C219.688752,7.46281306 219.375522,7.40514374 219.007042,7.40514374 L218.327179,7.40514374 L218.327179,6.40771484 L219.007042,6.40771484 C219.301166,6.40771484 219.560685,6.35502497 219.785599,6.24964523 C220.010514,6.14426549 220.185676,5.99677022 220.311085,5.80715942 C220.436495,5.61754862 220.499199,5.39520772 220.499199,5.14013672 C220.499199,4.89452108 220.444383,4.68032074 220.334752,4.49753571 C220.22512,4.31475067 220.06982,4.17245865 219.868851,4.07065964 C219.667883,3.96886063 219.43203,3.91796112 219.161293,3.91796112 C218.902082,3.91796112 218.660831,3.9646225 218.437539,4.05794525 C218.214247,4.15126801 218.032301,4.28392283 217.891701,4.45590973 C217.751102,4.62789663 217.67641,4.83588664 217.667626,5.07987976 L216.486489,5.07987976 C216.498238,4.64801025 216.625018,4.26758575 216.866829,3.93860626 C217.10864,3.60962677 217.43106,3.35255559 217.834088,3.16739273 C218.237116,2.98222987 218.685392,2.88964844 219.178917,2.88964844 C219.693423,2.88964844 220.13914,2.98990885 220.516068,3.19042969 C220.892996,3.39095052 221.18379,3.65638606 221.388451,3.9867363 C221.593112,4.31708654 221.695443,4.6785024 221.695443,5.07098389 C221.695443,5.52086894 221.569935,5.90094376 221.318921,6.21120834 C221.067906,6.52147293 220.732171,6.73135122 220.311715,6.8408432 L220.311715,6.90336609 C220.667997,6.9557902 220.971016,7.06859716 221.220772,7.24178696 C221.470528,7.41497676 221.660419,7.63473002 221.790444,7.90104675 C221.920469,8.16736348 221.985482,8.46783702 221.985482,8.80246735 C221.985482,9.24513499 221.863121,9.6401062 221.618401,9.98738098 C221.373681,10.3346558 221.03754,10.6081479 220.609978,10.8078575 C220.182417,11.0075671 219.695298,11.1074219 219.148621,11.1074219 Z" id="Path"></path>
                <path d="M226.439314,11.1074219 C225.818561,11.1074219 225.289046,10.9459674 224.850771,10.6230583 C224.412495,10.3001493 224.077039,9.8334376 223.844404,9.22292328 C223.611768,8.61240896 223.495451,7.87256877 223.495451,7.00340271 C223.495451,6.13787333 223.612496,5.3988444 223.846586,4.78631592 C224.080676,4.17378743 224.416817,3.70454407 224.855009,3.37858582 C225.293201,3.05262756 225.821302,2.88964844 226.439314,2.88964844 C227.057269,2.88964844 227.586294,3.05273946 228.026388,3.37892151 C228.466482,3.70510356 228.802679,4.17434692 229.034979,4.78665161 C229.267278,5.3989563 229.383428,6.13806915 229.383428,7.00399017 C229.383428,7.86996714 229.268006,8.60891215 229.037161,9.2208252 C228.806315,9.83273824 228.471755,10.3001493 228.033479,10.6230583 C227.595204,10.9459674 227.063815,11.1074219 226.439314,11.1074219 Z M226.439565,10.0592194 C226.809164,10.0592194 227.122617,9.93887329 227.379926,9.69818115 C227.637235,9.45748901 227.833476,9.10972468 227.968649,8.65488815 C228.103821,8.20005163 228.171407,7.64969635 228.171407,7.00382233 C228.171407,6.35447947 228.103821,5.80076726 227.968649,5.3426857 C227.833476,4.88460414 227.637165,4.53489558 227.379717,4.29356003 C227.122268,4.05222448 226.80894,3.9315567 226.439733,3.9315567 C226.070526,3.9315567 225.757101,4.05295181 225.499456,4.29574203 C225.241811,4.53853226 225.045403,4.88824081 224.91023,5.34486771 C224.775058,5.8014946 224.707472,6.35447947 224.707472,7.00382233 C224.707472,7.64969635 224.774904,8.20005163 224.909769,8.65488815 C225.044634,9.10972468 225.240916,9.45748901 225.498617,9.69818115 C225.756318,9.93887329 226.069967,10.0592194 226.439565,10.0592194 Z" id="Shape"></path>
                <path d="M233.075291,6.63036346 C232.722869,6.63036346 232.425207,6.55397924 232.182305,6.40121078 C231.939403,6.24844233 231.755708,6.04497019 231.631222,5.79079437 C231.506736,5.53661855 231.444493,5.25886027 231.444493,4.95751953 L231.444493,4.53857422 C231.444493,4.23594666 231.507785,3.95828629 231.634369,3.70559311 C231.760954,3.45289993 231.945865,3.25015513 232.189103,3.0973587 C232.43234,2.94456228 232.727737,2.86816406 233.075291,2.86816406 C233.431909,2.86816406 233.730215,2.94456228 233.970208,3.0973587 C234.2102,3.25015513 234.391699,3.45289993 234.514702,3.70559311 C234.637706,3.95828629 234.699208,4.23594666 234.699208,4.53857422 L234.699208,4.95751953 C234.699208,5.26014709 234.636811,5.53838094 234.512017,5.79222107 C234.387223,6.0460612 234.204675,6.24921163 233.964375,6.40167236 C233.724074,6.5541331 233.427713,6.63036346 233.075291,6.63036346 Z M233.075291,5.83300781 C233.337132,5.83300781 233.519679,5.7433637 233.622933,5.56407547 C233.726186,5.38478724 233.777813,5.18260193 233.777813,4.95751953 L233.777813,4.53857422 C233.777813,4.31640116 233.727977,4.11429977 233.628304,3.93227005 C233.528631,3.75024033 233.344293,3.65922546 233.075291,3.65922546 C232.817702,3.65922546 232.635071,3.75072988 232.527398,3.93373871 C232.419724,4.11674754 232.365887,4.31835937 232.365887,4.53857422 L232.365887,4.95751953 C232.365887,5.18260193 232.418577,5.38478724 232.523957,5.56407547 C232.629336,5.7433637 232.813115,5.83300781 233.075291,5.83300781 Z M238.432537,11.1508942 C238.080115,11.1508942 237.782439,11.0745099 237.539509,10.9217415 C237.296579,10.768973 237.112885,10.5655009 236.988427,10.3113251 C236.863968,10.0571493 236.801739,9.77939097 236.801739,9.47805023 L236.801739,9.05910492 C236.801739,8.75647736 236.865031,8.47881699 236.991616,8.22612381 C237.1182,7.97343063 237.303111,7.77068583 237.546349,7.6178894 C237.789587,7.46509298 238.084983,7.38869476 238.432537,7.38869476 C238.789156,7.38869476 239.088189,7.46509298 239.329636,7.6178894 C239.571083,7.77068583 239.752582,7.97343063 239.874131,8.22612381 C239.99568,8.47881699 240.056454,8.75647736 240.056454,9.05910492 L240.056454,9.47805023 C240.056454,9.7806778 239.994057,10.0589116 239.869263,10.3127518 C239.744469,10.5665919 239.561922,10.7697423 239.321621,10.9222031 C239.081321,11.0746638 238.78496,11.1508942 238.432537,11.1508942 Z M238.432537,10.3535385 C238.694378,10.3535385 238.876926,10.2638944 238.980179,10.0846062 C239.083433,9.90531794 239.13506,9.70313263 239.13506,9.47805023 L239.13506,9.05910492 C239.13506,8.83693186 239.085223,8.63483047 238.98555,8.45280075 C238.885877,8.27077103 238.70154,8.17975616 238.432537,8.17975616 C238.174949,8.17975616 237.992318,8.27126058 237.884644,8.45426941 C237.77697,8.63727824 237.723133,8.83889008 237.723133,9.05910492 L237.723133,9.47805023 C237.723133,9.70313263 237.775823,9.90531794 237.881203,10.0846062 C237.986583,10.2638944 238.170361,10.3535385 238.432537,10.3535385 Z M232.485478,11 L237.985478,2.99707031 L238.961758,2.99707031 L233.461758,11 L232.485478,11 Z" id="Shape"></path>
            </g>
            <path d="M5,12 C7.76142375,12 10,9.76142375 10,7 C10,4.23857625 7.76142375,2 5,2 C2.23857625,2 0,4.23857625 0,7 C0,9.76142375 2.23857625,12 5,12 Z" id="Oval-2" fill="#42C318"></path>
            <path d="M136.5,12 C139.261424,12 141.5,9.76142375 141.5,7 C141.5,4.23857625 139.261424,2 136.5,2 C133.738576,2 131.5,4.23857625 131.5,7 C131.5,9.76142375 133.738576,12 136.5,12 Z" id="Oval-2-Copy" fill="#FF4D4D"></path>
            <path d="M68.5,12 C71.2614237,12 73.5,9.76142375 73.5,7 C73.5,4.23857625 71.2614237,2 68.5,2 C65.7385763,2 63.5,4.23857625 63.5,7 C63.5,9.76142375 65.7385763,12 68.5,12 Z" id="Oval-2-Copy-2" fill="#FFB290"></path>
            <path d="M214,12 C216.761424,12 219,9.76142375 219,7 C219,4.23857625 216.761424,2 214,2 C211.238576,2 209,4.23857625 209,7 C209,9.76142375 211.238576,12 214,12 Z" id="Oval-2-Copy-3" fill="#A10505"></path>
        </g>
    </g>
</svg>