<?xml version="1.0" encoding="UTF-8"?>
<svg width="181px" height="16px" viewBox="0 0 181 16" version="1.1" xmlns="http://www.w3.org/2000/svg" xmlns:xlink="http://www.w3.org/1999/xlink">
    <title>legend-cimice</title>
    <defs>
        <path d="M0,0 L179.9,0 L179.9,14.2 L0,14.2 L0,0 Z" id="path-1"></path>
    </defs>
    <g id="legend-cimice" stroke="none" fill="none" transform="translate(0.5, 0.9)" xlink:href="#path-1" fill-rule="evenodd">
        <use fill="#FFFFFF" xlink:href="#path-1"></use>
        <g id="Group" stroke-width="1" transform="translate(2, 2.1)" fill="#000000">
            <g id="Totale-forme-giovani" transform="translate(14.5644, 0.6211)" fill-rule="nonzero">
                <polygon id="Path" points="0 1.43106079 0 0.375976562 6.21024323 0.375976562 6.21024323 1.43106079 3.72325897 1.43106079 3.72325897 8.37890625 2.49588013 8.37890625 2.49588013 1.43106079"></polygon>
                <path d="M9.45625799,8.50395203 C8.89262884,8.50395203 8.40082408,8.37487793 7.98084371,8.11672974 C7.56086334,7.85858154 7.23483516,7.4969279 7.00275915,7.0317688 C6.77068314,6.5666097 6.65464513,6.02608744 6.65464513,5.41020203 C6.65464513,4.78547668 6.77068314,4.23980713 7.00275915,3.77319336 C7.23483516,3.30657959 7.56086334,2.94419861 7.98084371,2.68605042 C8.40082408,2.42790222 8.89262884,2.29882812 9.45625799,2.29882812 C10.0227965,2.29882812 10.5164615,2.42790222 10.9372532,2.68605042 C11.3580448,2.94419861 11.6844786,3.30657959 11.9165546,3.77319336 C12.1486306,4.23980713 12.2646686,4.78547668 12.2646686,5.41020203 C12.2646686,6.02608744 12.1486306,6.5666097 11.9165546,7.0317688 C11.6844786,7.4969279 11.3580448,7.85858154 10.9372532,8.11672974 C10.5164615,8.37487793 10.0227965,8.50395203 9.45625799,8.50395203 Z M9.45625799,7.50484467 C9.82154831,7.50484467 10.1234485,7.40906016 10.3619587,7.21749115 C10.6004688,7.02592214 10.777547,6.77125676 10.8931934,6.45349503 C11.0088398,6.13573329 11.066663,5.78732554 11.066663,5.40827179 C11.066663,5.02563731 11.0088398,4.67446009 10.8931934,4.35474014 C10.777547,4.03502019 10.6004688,3.7789561 10.3619587,3.58654785 C10.1234485,3.39413961 9.82154831,3.29793549 9.45625799,3.29793549 C9.09320562,3.29793549 8.79373917,3.39413961 8.55785863,3.58654785 C8.3219781,3.7789561 8.14620066,4.03427887 8.03052633,4.35251617 C7.91485199,4.67075348 7.85701482,5.02267202 7.85701482,5.40827179 C7.85701482,5.78732554 7.91485199,6.13573329 8.03052633,6.45349503 C8.14620066,6.77125676 8.3219781,7.02592214 8.55785863,7.21749115 C8.79373917,7.40906016 9.09320562,7.50484467 9.45625799,7.50484467 Z" id="Shape"></path>
                <path d="M16.4472993,2.37402344 L16.4472993,3.33460999 L13.1900667,3.33460999 L13.1900667,2.37402344 L16.4472993,2.37402344 Z M14.0672334,0.9453125 L15.2487062,0.9453125 L15.2487062,6.75457001 C15.2487062,6.99733226 15.299284,7.17501195 15.4004396,7.2876091 C15.5015952,7.40020625 15.669302,7.45650482 15.90356,7.45650482 C15.9650479,7.45650482 16.0458241,7.44917552 16.1458887,7.43451691 C16.2459533,7.4198583 16.3318208,7.40536753 16.4034914,7.39104462 L16.6128801,8.33795166 C16.4861558,8.37957764 16.3510253,8.409832 16.2074884,8.42871475 C16.0639515,8.4475975 15.9233939,8.45703888 15.7858156,8.45703888 C15.2389151,8.45703888 14.8157597,8.31701279 14.5163492,8.0369606 C14.2169387,7.75690842 14.0672334,7.36192322 14.0672334,6.852005 L14.0672334,0.9453125 Z" id="Shape"></path>
                <path d="M19.6527162,8.51083374 C19.2725435,8.51083374 18.9288774,8.44067383 18.621718,8.300354 C18.3145585,8.16003418 18.0712788,7.95362473 17.8918786,7.68112564 C17.7124785,7.40862656 17.6227784,7.07510122 17.6227784,6.68054962 C17.6227784,6.33937327 17.6885604,6.05975469 17.8201242,5.84169388 C17.951688,5.62363307 18.1287383,5.45058314 18.351275,5.3225441 C18.5738117,5.19450506 18.8221409,5.09827296 19.0962625,5.03384781 C19.3703841,4.96942266 19.6499747,4.92059326 19.9350343,4.88735962 C20.2892467,4.84467061 20.5770478,4.80982844 20.7984376,4.7828331 C21.0198274,4.75583776 21.1835199,4.71110662 21.289515,4.64863968 C21.3955102,4.58617274 21.4485078,4.48441569 21.4485078,4.34336853 L21.4485078,4.3130722 C21.4485078,4.08888499 21.4053432,3.89913432 21.3190141,3.74382019 C21.232685,3.58850606 21.1041564,3.46929296 20.9334283,3.38618088 C20.7627003,3.3030688 20.5502483,3.26151276 20.2960725,3.26151276 C20.0366934,3.26151276 19.8133315,3.30176799 19.6259866,3.38227844 C19.4386417,3.4627889 19.2862509,3.56518936 19.1688142,3.68947983 C19.0513775,3.81377029 18.9639573,3.94411723 18.9065538,4.08052063 L17.7946534,3.79467773 C17.9312247,3.43459066 18.1266682,3.14532089 18.3809839,2.92686844 C18.6352995,2.70841599 18.9269332,2.54912949 19.2558847,2.44900894 C19.5848362,2.3488884 19.9261664,2.29882812 20.2798753,2.29882812 C20.521015,2.29882812 20.7776526,2.32766978 21.049788,2.38535309 C21.3219234,2.4430364 21.5776938,2.5467097 21.8170991,2.69637299 C22.0565044,2.84603628 22.251836,3.05755107 22.4030938,3.33091736 C22.5543517,3.60428365 22.6299806,3.95810445 22.6299806,4.39237976 L22.6299806,8.37890625 L21.4868608,8.37890625 L21.4868608,7.55670929 L21.4262681,7.55670929 C21.3485551,7.71179962 21.2327409,7.8626798 21.0788255,8.00934982 C20.9249101,8.15601985 20.7302499,8.27626801 20.4948449,8.3700943 C20.25944,8.46392059 19.9787304,8.51083374 19.6527162,8.51083374 Z M19.9149766,7.56493378 C20.2382493,7.56493378 20.5142312,7.50155767 20.7429223,7.37480545 C20.9716134,7.24805323 21.1470272,7.08147939 21.2691636,6.87508392 C21.3913001,6.66868846 21.4523683,6.44922892 21.4523683,6.21670532 L21.4523683,5.44511414 C21.4097912,5.48713175 21.3283715,5.52549871 21.2081094,5.560215 C21.0878473,5.59493128 20.9513739,5.62563324 20.7986894,5.65232086 C20.6460049,5.67900848 20.4974046,5.70172373 20.3528886,5.72046661 C20.2083726,5.73920949 20.0902086,5.75425975 19.9983964,5.76561737 C19.7772864,5.79364777 19.5742758,5.84160995 19.3893647,5.90950394 C19.2044537,5.97739792 19.0575738,6.07396571 18.9487252,6.19920731 C18.8398767,6.3244489 18.7854524,6.49037933 18.7854524,6.6969986 C18.7854524,6.88728078 18.8343237,7.04660924 18.9320665,7.17498398 C19.0298092,7.30335871 19.1634012,7.40044403 19.3328424,7.46623993 C19.5022836,7.53203583 19.6963283,7.56493378 19.9149766,7.56493378 Z" id="Shape"></path>
                <polygon id="Path" points="25.7003241 0.375976562 25.7003241 8.37890625 24.5189353 8.37890625 24.5189353 0.375976562"></polygon>
                <path d="M30.1775369,8.50395203 C29.5864928,8.50395203 29.0767424,8.37617874 28.6482858,8.12063217 C28.2198292,7.8650856 27.8901363,7.50635529 27.6592073,7.04444122 C27.4282782,6.58252716 27.3128137,6.04071808 27.3128137,5.41901398 C27.3128137,4.80245717 27.4262361,4.26013056 27.6530809,3.79203415 C27.8799257,3.32393773 28.2009045,2.95804596 28.6160173,2.69435883 C29.0311301,2.43067169 29.5175917,2.29882812 30.0754022,2.29882812 C30.4185927,2.29882812 30.7502018,2.35486094 31.0702295,2.46692657 C31.3902571,2.57899221 31.6773029,2.75520325 31.9313669,2.99555969 C32.1854308,3.23591614 32.3866929,3.54734166 32.5351533,3.92983627 C32.6836137,4.31233088 32.7578439,4.77431488 32.7578439,5.31578827 L32.7578439,5.73506927 L27.9700174,5.73506927 L27.9700174,4.85286713 L32.1488122,4.85286713 L31.5971002,5.14399719 C31.5971002,4.77719625 31.5400183,4.45328013 31.4258546,4.17224884 C31.3116909,3.89121755 31.1422077,3.67160416 30.9174051,3.51340866 C30.6926024,3.35521317 30.4132216,3.27611542 30.0792627,3.27611542 C29.7453037,3.27611542 29.4600623,3.35668182 29.2235383,3.51781464 C28.9870144,3.67894745 28.8065093,3.89121755 28.682023,4.15462494 C28.5575367,4.41803233 28.4952936,4.70524597 28.4952936,5.01626587 L28.4952936,5.61581421 C28.4952936,6.02759806 28.565999,6.37610372 28.7074098,6.66133118 C28.8488206,6.94655863 29.0471595,7.16208776 29.3024263,7.30791855 C29.5576931,7.45374934 29.8534529,7.52666473 30.1897058,7.52666473 C30.4099206,7.52666473 30.6101058,7.49505361 30.7902612,7.43183136 C30.9704166,7.36860911 31.125479,7.27355194 31.2554483,7.14665985 C31.3854176,7.01976776 31.4850905,6.86266327 31.5544671,6.67534637 L32.6630945,6.93701935 C32.5687087,7.24809519 32.4076038,7.52127965 32.1797799,7.75657272 C31.9519561,7.99186579 31.6687567,8.17525228 31.330182,8.30673218 C30.9916073,8.43821208 30.6073923,8.50395203 30.1775369,8.50395203 Z" id="Path"></path>
                <path d="M40.555836,2.37402344 L40.555836,3.33460999 L36.8930858,3.33460999 L36.8930858,2.37402344 L40.555836,2.37402344 Z M38.0341075,8.37890625 L38.0341075,1.68685913 C38.0341075,1.31306458 38.116702,1.00141525 38.2818911,0.751911163 C38.4470803,0.502407074 38.6658404,0.314712524 38.9381717,0.188827515 C39.2105029,0.0629425049 39.50492,0 39.8214229,0 C40.0589819,0 40.2627757,0.0192883809 40.4328044,0.0578651428 C40.6028331,0.0964419047 40.7281866,0.131507874 40.8088649,0.163063049 L40.5325053,1.11978912 C40.4772278,1.10121409 40.4073756,1.0818278 40.3229487,1.06163025 C40.2385219,1.0414327 40.1331141,1.03133392 40.0067256,1.03133392 C39.7269252,1.03133392 39.5247818,1.10146586 39.4002955,1.24172974 C39.2758092,1.38199361 39.2135661,1.58394114 39.2135661,1.84757233 L39.2135661,8.37890625 L38.0341075,8.37890625 Z" id="Shape"></path>
                <path d="M44.285754,8.50395203 C43.7221249,8.50395203 43.2303201,8.37487793 42.8103398,8.11672974 C42.3903594,7.85858154 42.0643312,7.4969279 41.8322552,7.0317688 C41.6001792,6.5666097 41.4841412,6.02608744 41.4841412,5.41020203 C41.4841412,4.78547668 41.6001792,4.23980713 41.8322552,3.77319336 C42.0643312,3.30657959 42.3903594,2.94419861 42.8103398,2.68605042 C43.2303201,2.42790222 43.7221249,2.29882812 44.285754,2.29882812 C44.8522925,2.29882812 45.3459576,2.42790222 45.7667492,2.68605042 C46.1875409,2.94419861 46.5139747,3.30657959 46.7460507,3.77319336 C46.9781267,4.23980713 47.0941647,4.78547668 47.0941647,5.41020203 C47.0941647,6.02608744 46.9781267,6.5666097 46.7460507,7.0317688 C46.5139747,7.4969279 46.1875409,7.85858154 45.7667492,8.11672974 C45.3459576,8.37487793 44.8522925,8.50395203 44.285754,8.50395203 Z M44.285754,7.50484467 C44.6510444,7.50484467 44.9529446,7.40906016 45.1914547,7.21749115 C45.4299649,7.02592214 45.6070431,6.77125676 45.7226895,6.45349503 C45.8383358,6.13573329 45.896159,5.78732554 45.896159,5.40827179 C45.896159,5.02563731 45.8383358,4.67446009 45.7226895,4.35474014 C45.6070431,4.03502019 45.4299649,3.7789561 45.1914547,3.58654785 C44.9529446,3.39413961 44.6510444,3.29793549 44.285754,3.29793549 C43.9227017,3.29793549 43.6232352,3.39413961 43.3873547,3.58654785 C43.1514742,3.7789561 42.9756967,4.03427887 42.8600224,4.35251617 C42.7443481,4.67075348 42.6865109,5.02267202 42.6865109,5.40827179 C42.6865109,5.78732554 42.7443481,6.13573329 42.8600224,6.45349503 C42.9756967,6.77125676 43.1514742,7.02592214 43.3873547,7.21749115 C43.6232352,7.40906016 43.9227017,7.50484467 44.285754,7.50484467 Z" id="Shape"></path>
                <path d="M48.7066431,8.37890625 L48.7066431,2.37402344 L49.8500147,2.37402344 L49.8500147,3.33847046 L49.9144678,3.33847046 C50.024855,3.01217651 50.2181864,2.75586065 50.494462,2.56952286 C50.7707377,2.38318507 51.0843592,2.29001617 51.4353266,2.29001617 C51.5108576,2.29001617 51.5973686,2.29277166 51.6948595,2.29828262 C51.7923505,2.30379359 51.8723154,2.31060537 51.9347544,2.31871796 L51.9347544,3.4464798 C51.8919535,3.4335556 51.8095547,3.4197642 51.6875582,3.40510559 C51.5655616,3.39044698 51.4417048,3.38311768 51.3159876,3.38311768 C51.0430689,3.38311768 50.7982365,3.44084295 50.5814905,3.55629349 C50.3647445,3.67174403 50.1949816,3.83066686 50.0722017,4.03306198 C49.9494219,4.2354571 49.888032,4.46883392 49.888032,4.73319244 L49.888032,8.37890625 L48.7066431,8.37890625 Z" id="Path"></path>
                <path d="M53.4018058,8.37890625 L53.4018058,2.37402344 L54.5273856,2.37402344 L54.5569266,3.76706696 L54.4681357,3.76706696 C54.5530662,3.42639414 54.6849657,3.14631399 54.8638343,2.92682648 C55.0427029,2.70733897 55.2521616,2.54339472 55.4922103,2.43499374 C55.732259,2.32659276 55.9828122,2.27239227 56.2438697,2.27239227 C56.6787604,2.27239227 57.0305811,2.40763474 57.2993316,2.67811966 C57.5680821,2.94860458 57.7495663,3.3248469 57.8437842,3.80684662 L57.6955756,3.80684662 C57.7729529,3.47769928 57.9087969,3.19891993 58.1031074,2.97050858 C58.2974179,2.74209722 58.5307108,2.56864166 58.8029861,2.45014191 C59.0752613,2.33164215 59.3688112,2.27239227 59.6836356,2.27239227 C60.0374005,2.27239227 60.3578338,2.34919612 60.6449355,2.5028038 C60.9320373,2.65641149 61.159987,2.88524246 61.3287849,3.18929672 C61.4975827,3.49335098 61.5819816,3.87328593 61.5819816,4.32910156 L61.5819816,8.37890625 L60.4005088,8.37890625 L60.4005088,4.4496994 C60.4005088,4.04737091 60.2887649,3.75649261 60.065277,3.57706451 C59.8417892,3.39763641 59.5779202,3.30792236 59.2736701,3.30792236 C59.0270474,3.30792236 58.8138961,3.36029053 58.6342162,3.46502686 C58.4545363,3.56976318 58.3162307,3.71399943 58.2192992,3.8977356 C58.1223678,4.08147176 58.073902,4.29337819 58.073902,4.5334549 L58.073902,8.37890625 L56.9098853,8.37890625 L56.9098853,4.37047577 C56.9098853,4.0503362 56.8069394,3.79320908 56.6010474,3.59909439 C56.3951555,3.40497971 56.1327552,3.30792236 55.8138465,3.30792236 C55.5959256,3.30792236 55.392887,3.35882187 55.2047309,3.46062088 C55.0165748,3.56241989 54.8659464,3.71253077 54.7528457,3.91095352 C54.639745,4.10937627 54.5831946,4.35503387 54.5831946,4.64792633 L54.5831946,8.37890625 L53.4018058,8.37890625 Z" id="Path"></path>
                <path d="M66.0591563,8.50395203 C65.4681122,8.50395203 64.9583618,8.37617874 64.5299052,8.12063217 C64.1014486,7.8650856 63.7717558,7.50635529 63.5408267,7.04444122 C63.3098976,6.58252716 63.1944331,6.04071808 63.1944331,5.41901398 C63.1944331,4.80245717 63.3078555,4.26013056 63.5347003,3.79203415 C63.7615451,3.32393773 64.0825239,2.95804596 64.4976367,2.69435883 C64.9127495,2.43067169 65.3992111,2.29882812 65.9570216,2.29882812 C66.3002121,2.29882812 66.6318212,2.35486094 66.9518489,2.46692657 C67.2718766,2.57899221 67.5589223,2.75520325 67.8129863,2.99555969 C68.0670502,3.23591614 68.2683124,3.54734166 68.4167727,3.92983627 C68.5652331,4.31233088 68.6394633,4.77431488 68.6394633,5.31578827 L68.6394633,5.73506927 L63.8516368,5.73506927 L63.8516368,4.85286713 L68.0304316,4.85286713 L67.4787196,5.14399719 C67.4787196,4.77719625 67.4216378,4.45328013 67.307474,4.17224884 C67.1933103,3.89121755 67.0238271,3.67160416 66.7990245,3.51340866 C66.5742218,3.35521317 66.294841,3.27611542 65.9608821,3.27611542 C65.6269231,3.27611542 65.3416817,3.35668182 65.1051578,3.51781464 C64.8686338,3.67894745 64.6881287,3.89121755 64.5636424,4.15462494 C64.4391561,4.41803233 64.376913,4.70524597 64.376913,5.01626587 L64.376913,5.61581421 C64.376913,6.02759806 64.4476184,6.37610372 64.5890292,6.66133118 C64.73044,6.94655863 64.9287789,7.16208776 65.1840457,7.30791855 C65.4393125,7.45374934 65.7350724,7.52666473 66.0713252,7.52666473 C66.29154,7.52666473 66.4917252,7.49505361 66.6718806,7.43183136 C66.8520361,7.36860911 67.0070984,7.27355194 67.1370677,7.14665985 C67.267037,7.01976776 67.3667099,6.86266327 67.4360866,6.67534637 L68.5447139,6.93701935 C68.4503281,7.24809519 68.2892233,7.52127965 68.0613994,7.75657272 C67.8335755,7.99186579 67.5503762,8.17525228 67.2118014,8.30673218 C66.8732267,8.43821208 66.4890117,8.50395203 66.0591563,8.50395203 Z" id="Path"></path>
                <path d="M75.9731915,10.7529297 C75.5104941,10.7529297 75.1092147,10.6942813 74.7693531,10.5769844 C74.4294916,10.4596876 74.1490897,10.3019816 73.9281475,10.1038666 C73.7072054,9.90575155 73.5401699,9.68618011 73.4270413,9.44515228 L74.4113781,8.98088837 C74.4857342,9.09418488 74.5827636,9.2150205 74.7024662,9.34339523 C74.8221689,9.47176997 74.9833996,9.58003108 75.1861584,9.66817856 C75.3889172,9.75632604 75.6506181,9.80039978 75.9712613,9.80039978 C76.4278602,9.80039978 76.7986195,9.69258626 77.0835392,9.47695923 C77.368459,9.26133219 77.5109188,8.92256165 77.5109188,8.46064758 L77.5109188,7.29042053 L77.4080288,7.29042053 C77.3387082,7.42044576 77.2401822,7.56294759 77.1124508,7.71792603 C76.9847195,7.87290446 76.8071517,8.00634257 76.5797474,8.11824036 C76.3523432,8.23013814 76.0556042,8.28608704 75.6895306,8.28608704 C75.2193361,8.28608704 74.7949358,8.17497253 74.4163296,7.95274353 C74.0377235,7.73051453 73.7378933,7.40161896 73.5168393,6.96605682 C73.2957852,6.53049469 73.1852581,5.99360911 73.1852581,5.35540009 C73.1852581,4.71663157 73.2952816,4.16929754 73.5153286,3.71339798 C73.7353756,3.25749842 74.0354435,2.90776189 74.4155323,2.66418839 C74.7956212,2.42061488 75.2254905,2.29882812 75.7051403,2.29882812 C76.0757458,2.29882812 76.3760515,2.36013412 76.6060574,2.48274612 C76.8360633,2.60535812 77.0164705,2.74966431 77.147279,2.91566467 C77.2780875,3.08166504 77.3784598,3.22707621 77.448396,3.35189819 L77.5310605,3.35189819 L77.5310605,2.37402344 L78.686517,2.37402344 L78.686517,8.46601868 C78.686517,8.99003601 78.5674158,9.42117818 78.3292134,9.75944519 C78.091011,10.0977122 77.7671368,10.3478597 77.3575909,10.5098877 C76.948045,10.6719157 76.4865785,10.7529297 75.9731915,10.7529297 Z M75.9647152,7.30493927 C76.3002967,7.30493927 76.5835799,7.22683462 76.8145649,7.07062531 C77.0455499,6.914416 77.2208238,6.68916575 77.3403866,6.39487457 C77.4599494,6.10058339 77.5197308,5.74821726 77.5197308,5.33777618 C77.5197308,4.9348882 77.4606907,4.5814031 77.3426106,4.27732086 C77.2245305,3.97323863 77.0499839,3.735274 76.8189709,3.56342697 C76.5879579,3.39157995 76.303206,3.30565643 75.9647152,3.30565643 C75.6179999,3.30565643 75.327849,3.39598592 75.0942624,3.5766449 C74.8606757,3.75730387 74.6851501,4.00040181 74.5676854,4.30593872 C74.4502207,4.61147563 74.3914883,4.95542145 74.3914883,5.33777618 C74.3914883,5.72829946 74.450948,6.07144801 74.5698674,6.36722183 C74.6887867,6.66299566 74.8650537,6.89322535 75.0986683,7.05791092 C75.3322829,7.22259649 75.6209652,7.30493927 75.9647152,7.30493927 Z" id="Shape"></path>
                <path d="M80.5759719,8.37890625 L80.5759719,2.37402344 L81.7576126,2.37402344 L81.7576126,8.37890625 L80.5759719,8.37890625 Z M81.1721633,1.45556641 C80.9680618,1.45556641 80.7935012,1.38753255 80.6484817,1.25146484 C80.5034622,1.11539714 80.4309524,0.950683594 80.4309524,0.757324219 C80.4309524,0.560384115 80.5034622,0.393880208 80.6484817,0.2578125 C80.7935012,0.121744792 80.9680618,0.0537109375 81.1721633,0.0537109375 C81.3762649,0.0537109375 81.5517206,0.121744792 81.6985305,0.2578125 C81.8453404,0.393880208 81.9187454,0.560384115 81.9187454,0.757324219 C81.9187454,0.950683594 81.8453404,1.11539714 81.6985305,1.25146484 C81.5517206,1.38753255 81.3762649,1.45556641 81.1721633,1.45556641 Z" id="Shape"></path>
                <path d="M86.1710436,8.50395203 C85.6074145,8.50395203 85.1156097,8.37487793 84.6956293,8.11672974 C84.275649,7.85858154 83.9496208,7.4969279 83.7175448,7.0317688 C83.4854688,6.5666097 83.3694308,6.02608744 83.3694308,5.41020203 C83.3694308,4.78547668 83.4854688,4.23980713 83.7175448,3.77319336 C83.9496208,3.30657959 84.275649,2.94419861 84.6956293,2.68605042 C85.1156097,2.42790222 85.6074145,2.29882812 86.1710436,2.29882812 C86.7375821,2.29882812 87.2312472,2.42790222 87.6520388,2.68605042 C88.0728304,2.94419861 88.3992642,3.30657959 88.6313402,3.77319336 C88.8634162,4.23980713 88.9794542,4.78547668 88.9794542,5.41020203 C88.9794542,6.02608744 88.8634162,6.5666097 88.6313402,7.0317688 C88.3992642,7.4969279 88.0728304,7.85858154 87.6520388,8.11672974 C87.2312472,8.37487793 86.7375821,8.50395203 86.1710436,8.50395203 Z M86.1710436,7.50484467 C86.5363339,7.50484467 86.8382342,7.40906016 87.0767443,7.21749115 C87.3152544,7.02592214 87.4923327,6.77125676 87.607979,6.45349503 C87.7236254,6.13573329 87.7814486,5.78732554 87.7814486,5.40827179 C87.7814486,5.02563731 87.7236254,4.67446009 87.607979,4.35474014 C87.4923327,4.03502019 87.3152544,3.7789561 87.0767443,3.58654785 C86.8382342,3.39413961 86.5363339,3.29793549 86.1710436,3.29793549 C85.8079912,3.29793549 85.5085248,3.39413961 85.2726443,3.58654785 C85.0367637,3.7789561 84.8609863,4.03427887 84.7453119,4.35251617 C84.6296376,4.67075348 84.5718004,5.02267202 84.5718004,5.40827179 C84.5718004,5.78732554 84.6296376,6.13573329 84.7453119,6.45349503 C84.8609863,6.77125676 85.0367637,7.02592214 85.2726443,7.21749115 C85.5085248,7.40906016 85.8079912,7.50484467 86.1710436,7.50484467 Z" id="Shape"></path>
                <path d="M92.103234,8.37890625 L89.8378074,2.37402344 L91.1134421,2.37402344 L92.3018806,5.78718567 C92.4340878,6.1624349 92.5469927,6.53871918 92.6405952,6.91603851 C92.7341977,7.29335785 92.8316047,7.66743215 92.9328162,8.03826141 L92.5812614,8.03826141 C92.6818575,7.66743215 92.7788029,7.29351171 92.8720977,6.91650009 C92.9653925,6.53948847 93.0763531,6.16305033 93.2049796,5.78718567 L94.3894736,2.37402344 L95.6593177,2.37402344 L93.3919608,8.37890625 L92.103234,8.37890625 Z" id="Path"></path>
                <path d="M98.6113306,8.51083374 C98.2311579,8.51083374 97.8874918,8.44067383 97.5803324,8.300354 C97.273173,8.16003418 97.0298932,7.95362473 96.8504931,7.68112564 C96.671093,7.40862656 96.5813929,7.07510122 96.5813929,6.68054962 C96.5813929,6.33937327 96.6471748,6.05975469 96.7787386,5.84169388 C96.9103024,5.62363307 97.0873527,5.45058314 97.3098894,5.3225441 C97.5324262,5.19450506 97.7807553,5.09827296 98.0548769,5.03384781 C98.3289985,4.96942266 98.6085891,4.92059326 98.8936487,4.88735962 C99.2478612,4.84467061 99.5356623,4.80982844 99.7570521,4.7828331 C99.9784418,4.75583776 100.142134,4.71110662 100.248129,4.64863968 C100.354125,4.58617274 100.407122,4.48441569 100.407122,4.34336853 L100.407122,4.3130722 C100.407122,4.08888499 100.363958,3.89913432 100.277629,3.74382019 C100.191299,3.58850606 100.062771,3.46929296 99.8920428,3.38618088 C99.7213147,3.3030688 99.5088628,3.26151276 99.254687,3.26151276 C98.9953079,3.26151276 98.7719459,3.30176799 98.5846011,3.38227844 C98.3972562,3.4627889 98.2448654,3.56518936 98.1274287,3.68947983 C98.0099919,3.81377029 97.9225718,3.94411723 97.8651682,4.08052063 L96.7532679,3.79467773 C96.8898391,3.43459066 97.0852826,3.14532089 97.3395983,2.92686844 C97.593914,2.70841599 97.8855476,2.54912949 98.2144991,2.44900894 C98.5434506,2.3488884 98.8847809,2.29882812 99.2384898,2.29882812 C99.4796295,2.29882812 99.7362671,2.32766978 100.008402,2.38535309 C100.280538,2.4430364 100.536308,2.5467097 100.775714,2.69637299 C101.015119,2.84603628 101.21045,3.05755107 101.361708,3.33091736 C101.512966,3.60428365 101.588595,3.95810445 101.588595,4.39237976 L101.588595,8.37890625 L100.445475,8.37890625 L100.445475,7.55670929 L100.384883,7.55670929 C100.30717,7.71179962 100.191355,7.8626798 100.03744,8.00934982 C99.8835245,8.15601985 99.6888644,8.27626801 99.4534594,8.3700943 C99.2180544,8.46392059 98.9373448,8.51083374 98.6113306,8.51083374 Z M98.8735911,7.56493378 C99.1968638,7.56493378 99.4728457,7.50155767 99.7015368,7.37480545 C99.9302279,7.24805323 100.105642,7.08147939 100.227778,6.87508392 C100.349915,6.66868846 100.410983,6.44922892 100.410983,6.21670532 L100.410983,5.44511414 C100.368406,5.48713175 100.286986,5.52549871 100.166724,5.560215 C100.046462,5.59493128 99.9099884,5.62563324 99.7573038,5.65232086 C99.6046193,5.67900848 99.456019,5.70172373 99.3115031,5.72046661 C99.1669871,5.73920949 99.048823,5.75425975 98.9570109,5.76561737 C98.7359008,5.79364777 98.5328903,5.84160995 98.3479792,5.90950394 C98.1630681,5.97739792 98.0161883,6.07396571 97.9073397,6.19920731 C97.7984911,6.3244489 97.7440668,6.49037933 97.7440668,6.6969986 C97.7440668,6.88728078 97.7929382,7.04660924 97.8906809,7.17498398 C97.9884236,7.30335871 98.1220156,7.40044403 98.2914568,7.46623993 C98.460898,7.53203583 98.6549428,7.56493378 98.8735911,7.56493378 Z" id="Shape"></path>
                <path d="M104.658939,4.82089233 L104.658939,8.37890625 L103.47755,8.37890625 L103.47755,2.37402344 L104.603969,2.37402344 L104.616138,3.84410858 L104.494365,3.84410858 C104.668646,3.3071111 104.922066,2.91531499 105.254626,2.66872025 C105.587187,2.4221255 105.989543,2.29882812 106.461696,2.29882812 C106.870179,2.29882812 107.227412,2.38449987 107.533397,2.55584335 C107.839381,2.72718684 108.07757,2.98073324 108.247962,3.31648254 C108.418355,3.65223185 108.503551,4.06790415 108.503551,4.56349945 L108.503551,8.37890625 L107.322162,8.37890625 L107.322162,4.71078491 C107.322162,4.27852376 107.209537,3.93990707 106.984286,3.69493484 C106.759036,3.44996262 106.450142,3.3274765 106.057605,3.3274765 C105.79112,3.3274765 105.552163,3.38578924 105.340732,3.5024147 C105.129301,3.61904017 104.962811,3.78845342 104.841262,4.01065445 C104.719713,4.23285548 104.658939,4.50293477 104.658939,4.82089233 Z" id="Path"></path>
                <path d="M110.393004,8.37890625 L110.393004,2.37402344 L111.574644,2.37402344 L111.574644,8.37890625 L110.393004,8.37890625 Z M110.989195,1.45556641 C110.785094,1.45556641 110.610533,1.38753255 110.465513,1.25146484 C110.320494,1.11539714 110.247984,0.950683594 110.247984,0.757324219 C110.247984,0.560384115 110.320494,0.393880208 110.465513,0.2578125 C110.610533,0.121744792 110.785094,0.0537109375 110.989195,0.0537109375 C111.193297,0.0537109375 111.368752,0.121744792 111.515562,0.2578125 C111.662372,0.393880208 111.735777,0.560384115 111.735777,0.757324219 C111.735777,0.950683594 111.662372,1.11539714 111.515562,1.25146484 C111.368752,1.38753255 111.193297,1.45556641 110.989195,1.45556641 Z" id="Shape"></path>
                <polygon id="Path" points="114.644379 0.375976562 114.644379 8.37890625 113.46299 8.37890625 113.46299 0.375976562"></polygon>
                <path d="M116.533815,8.37890625 L116.533815,2.37402344 L117.715456,2.37402344 L117.715456,8.37890625 L116.533815,8.37890625 Z M117.130007,1.45556641 C116.925905,1.45556641 116.751345,1.38753255 116.606325,1.25146484 C116.461306,1.11539714 116.388796,0.950683594 116.388796,0.757324219 C116.388796,0.560384115 116.461306,0.393880208 116.606325,0.2578125 C116.751345,0.121744792 116.925905,0.0537109375 117.130007,0.0537109375 C117.334108,0.0537109375 117.509564,0.121744792 117.656374,0.2578125 C117.803184,0.393880208 117.876589,0.560384115 117.876589,0.757324219 C117.876589,0.950683594 117.803184,1.11539714 117.656374,1.25146484 C117.509564,1.38753255 117.334108,1.45556641 117.130007,1.45556641 Z" id="Shape"></path>
                <path d="M125.423332,8.50395203 C124.832288,8.50395203 124.322538,8.37617874 123.894081,8.12063217 C123.465624,7.8650856 123.135932,7.50635529 122.905002,7.04444122 C122.674073,6.58252716 122.558609,6.04071808 122.558609,5.41901398 C122.558609,4.80245717 122.672031,4.26013056 122.898876,3.79203415 C123.125721,3.32393773 123.4467,2.95804596 123.861812,2.69435883 C124.276925,2.43067169 124.763387,2.29882812 125.321197,2.29882812 C125.664388,2.29882812 125.995997,2.35486094 126.316025,2.46692657 C126.636052,2.57899221 126.923098,2.75520325 127.177162,2.99555969 C127.431226,3.23591614 127.632488,3.54734166 127.780949,3.92983627 C127.929409,4.31233088 128.003639,4.77431488 128.003639,5.31578827 L128.003639,5.73506927 L123.215813,5.73506927 L123.215813,4.85286713 L127.394607,4.85286713 L126.842895,5.14399719 C126.842895,4.77719625 126.785814,4.45328013 126.67165,4.17224884 C126.557486,3.89121755 126.388003,3.67160416 126.1632,3.51340866 C125.938398,3.35521317 125.659017,3.27611542 125.325058,3.27611542 C124.991099,3.27611542 124.705857,3.35668182 124.469334,3.51781464 C124.23281,3.67894745 124.052304,3.89121755 123.927818,4.15462494 C123.803332,4.41803233 123.741089,4.70524597 123.741089,5.01626587 L123.741089,5.61581421 C123.741089,6.02759806 123.811794,6.37610372 123.953205,6.66133118 C124.094616,6.94655863 124.292955,7.16208776 124.548221,7.30791855 C124.803488,7.45374934 125.099248,7.52666473 125.435501,7.52666473 C125.655716,7.52666473 125.855901,7.49505361 126.036056,7.43183136 C126.216212,7.36860911 126.371274,7.27355194 126.501243,7.14665985 C126.631213,7.01976776 126.730886,6.86266327 126.800262,6.67534637 L127.90889,6.93701935 C127.814504,7.24809519 127.653399,7.52127965 127.425575,7.75657272 C127.197751,7.99186579 126.914552,8.17525228 126.575977,8.30673218 C126.237402,8.43821208 125.853187,8.50395203 125.423332,8.50395203 Z" id="Path"></path>
                <path d="M134.506107,8.51083374 C134.125934,8.51083374 133.782268,8.44067383 133.475108,8.300354 C133.167949,8.16003418 132.924669,7.95362473 132.745269,7.68112564 C132.565869,7.40862656 132.476169,7.07510122 132.476169,6.68054962 C132.476169,6.33937327 132.541951,6.05975469 132.673515,5.84169388 C132.805078,5.62363307 132.982129,5.45058314 133.204665,5.3225441 C133.427202,5.19450506 133.675531,5.09827296 133.949653,5.03384781 C134.223774,4.96942266 134.503365,4.92059326 134.788425,4.88735962 C135.142637,4.84467061 135.430438,4.80982844 135.651828,4.7828331 C135.873218,4.75583776 136.03691,4.71110662 136.142905,4.64863968 C136.248901,4.58617274 136.301898,4.48441569 136.301898,4.34336853 L136.301898,4.3130722 C136.301898,4.08888499 136.258734,3.89913432 136.172404,3.74382019 C136.086075,3.58850606 135.957547,3.46929296 135.786819,3.38618088 C135.616091,3.3030688 135.403639,3.26151276 135.149463,3.26151276 C134.890084,3.26151276 134.666722,3.30176799 134.479377,3.38227844 C134.292032,3.4627889 134.139641,3.56518936 134.022205,3.68947983 C133.904768,3.81377029 133.817348,3.94411723 133.759944,4.08052063 L132.648044,3.79467773 C132.784615,3.43459066 132.980059,3.14532089 133.234374,2.92686844 C133.48869,2.70841599 133.780324,2.54912949 134.109275,2.44900894 C134.438227,2.3488884 134.779557,2.29882812 135.133266,2.29882812 C135.374405,2.29882812 135.631043,2.32766978 135.903178,2.38535309 C136.175314,2.4430364 136.431084,2.5467097 136.67049,2.69637299 C136.909895,2.84603628 137.105226,3.05755107 137.256484,3.33091736 C137.407742,3.60428365 137.483371,3.95810445 137.483371,4.39237976 L137.483371,8.37890625 L136.340251,8.37890625 L136.340251,7.55670929 L136.279659,7.55670929 C136.201946,7.71179962 136.086131,7.8626798 135.932216,8.00934982 C135.7783,8.15601985 135.58364,8.27626801 135.348235,8.3700943 C135.11283,8.46392059 134.832121,8.51083374 134.506107,8.51083374 Z M134.768367,7.56493378 C135.09164,7.56493378 135.367622,7.50155767 135.596313,7.37480545 C135.825004,7.24805323 136.000418,7.08147939 136.122554,6.87508392 C136.24469,6.66868846 136.305759,6.44922892 136.305759,6.21670532 L136.305759,5.44511414 C136.263182,5.48713175 136.181762,5.52549871 136.0615,5.560215 C135.941238,5.59493128 135.804764,5.62563324 135.65208,5.65232086 C135.499395,5.67900848 135.350795,5.70172373 135.206279,5.72046661 C135.061763,5.73920949 134.943599,5.75425975 134.851787,5.76561737 C134.630677,5.79364777 134.427666,5.84160995 134.242755,5.90950394 C134.057844,5.97739792 133.910964,6.07396571 133.802116,6.19920731 C133.693267,6.3244489 133.638843,6.49037933 133.638843,6.6969986 C133.638843,6.88728078 133.687714,7.04660924 133.785457,7.17498398 C133.8832,7.30335871 134.016792,7.40044403 134.186233,7.46623993 C134.355674,7.53203583 134.549719,7.56493378 134.768367,7.56493378 Z" id="Shape"></path>
                <path d="M141.604435,8.49816132 C141.119582,8.49816132 140.687684,8.37378693 140.308742,8.12503815 C139.9298,7.87628937 139.632908,7.5201327 139.418064,7.05656815 C139.20322,6.59300359 139.095798,6.03769684 139.095798,5.39064789 C139.095798,4.74007416 139.204927,4.18391418 139.423183,3.72216797 C139.64144,3.26042175 139.939885,2.90776189 140.318519,2.66418839 C140.697154,2.42061488 141.12596,2.29882812 141.604938,2.29882812 C141.978509,2.29882812 142.279388,2.36086146 142.507576,2.48492813 C142.735763,2.6089948 142.914212,2.75330098 143.042923,2.91784668 C143.171633,3.08239237 143.269166,3.22707621 143.335521,3.35189819 L143.402996,3.35189819 L143.402996,0.375976562 L144.584385,0.375976562 L144.584385,8.37890625 L143.433292,8.37890625 L143.433292,7.43904877 L143.335521,7.43904877 C143.267879,7.56683604 143.16808,7.71333822 143.036125,7.8785553 C142.904169,8.04377238 142.723832,8.18834432 142.495113,8.31227112 C142.266394,8.43619792 141.969501,8.49816132 141.604435,8.49816132 Z M141.866443,7.49124908 C142.201353,7.49124908 142.484469,7.4022344 142.71579,7.22420502 C142.94711,7.04617564 143.122552,6.79868571 143.242115,6.48173523 C143.361678,6.16478475 143.421459,5.79815165 143.421459,5.38183594 C143.421459,4.9642334 143.362419,4.60046768 143.244339,4.29053879 C143.126259,3.98060989 142.951558,3.73898061 142.720238,3.56565094 C142.488917,3.39232127 142.204319,3.30565643 141.866443,3.30565643 C141.519728,3.30565643 141.230304,3.39671326 140.998173,3.5788269 C140.766041,3.76094055 140.591984,4.00844447 140.476002,4.32133865 C140.360019,4.63423284 140.302028,4.98773193 140.302028,5.38183594 C140.302028,5.77823385 140.360761,6.13580322 140.478225,6.45454407 C140.59569,6.77328491 140.771216,7.02575429 141.004802,7.21195221 C141.238389,7.39815013 141.525603,7.49124908 141.866443,7.49124908 Z" id="Shape"></path>
                <path d="M148.51972,8.45410156 C148.111852,8.45410156 147.754031,8.36842982 147.446256,8.19708633 C147.138481,8.02574285 146.899398,7.77145513 146.729005,7.43422318 C146.558613,7.09699122 146.473417,6.68206024 146.473417,6.18943024 L146.473417,2.37402344 L147.654806,2.37402344 L147.654806,6.04214478 C147.654806,6.47440592 147.768172,6.81302261 147.994905,7.05799484 C148.221638,7.30296707 148.531273,7.42545319 148.92381,7.42545319 C149.19091,7.42545319 149.429295,7.36714045 149.638963,7.25051498 C149.848632,7.13388952 150.014226,6.96358109 150.135747,6.73958969 C150.257268,6.5155983 150.318029,6.24641418 150.318029,5.93203735 L150.318029,2.37402344 L151.503866,2.37402344 L151.503866,8.37890625 L150.372999,8.37890625 L150.365278,6.90882111 L150.482603,6.90882111 C150.305412,7.45169322 150.049069,7.84495799 149.713571,8.08861542 C149.378073,8.33227285 148.980123,8.45410156 148.51972,8.45410156 Z" id="Path"></path>
                <polygon id="Path" points="154.574244 0.375976562 154.574244 8.37890625 153.392855 8.37890625 153.392855 0.375976562"></polygon>
                <path d="M159.194546,2.37402344 L159.194546,3.33460999 L155.937314,3.33460999 L155.937314,2.37402344 L159.194546,2.37402344 Z M156.81448,0.9453125 L157.995953,0.9453125 L157.995953,6.75457001 C157.995953,6.99733226 158.046531,7.17501195 158.147687,7.2876091 C158.248842,7.40020625 158.416549,7.45650482 158.650807,7.45650482 C158.712295,7.45650482 158.793071,7.44917552 158.893136,7.43451691 C158.9932,7.4198583 159.079068,7.40536753 159.150738,7.39104462 L159.360127,8.33795166 C159.233403,8.37957764 159.098272,8.409832 158.954735,8.42871475 C158.811199,8.4475975 158.670641,8.45703888 158.533063,8.45703888 C157.986162,8.45703888 157.563007,8.31701279 157.263596,8.0369606 C156.964186,7.75690842 156.81448,7.36192322 156.81448,6.852005 L156.81448,0.9453125 Z" id="Shape"></path>
                <path d="M160.666527,8.37890625 L160.666527,2.37402344 L161.848167,2.37402344 L161.848167,8.37890625 L160.666527,8.37890625 Z M161.262718,1.45556641 C161.058616,1.45556641 160.884056,1.38753255 160.739036,1.25146484 C160.594017,1.11539714 160.521507,0.950683594 160.521507,0.757324219 C160.521507,0.560384115 160.594017,0.393880208 160.739036,0.2578125 C160.884056,0.121744792 161.058616,0.0537109375 161.262718,0.0537109375 C161.46682,0.0537109375 161.642275,0.121744792 161.789085,0.2578125 C161.935895,0.393880208 162.0093,0.560384115 162.0093,0.757324219 C162.0093,0.950683594 161.935895,1.11539714 161.789085,1.25146484 C161.642275,1.38753255 161.46682,1.45556641 161.262718,1.45556641 Z" id="Shape"></path>
            </g>
            <circle id="Oval-6-Copy" cx="5" cy="5" r="5"></circle>
        </g>
    </g>
</svg>